<?xml version="1.0" standalone="no"?>
<!DOCTYPE svg PUBLIC "-//W3C//DTD SVG 20010904//EN"
 "http://www.w3.org/TR/2001/REC-SVG-20010904/DTD/svg10.dtd">
<svg version="1.0" xmlns="http://www.w3.org/2000/svg"
 width="5200.000000pt" height="5200.000000pt" viewBox="0 0 5200.000000 5200.000000"
 preserveAspectRatio="xMidYMid meet">

<g transform="translate(0.000000,5200.000000) scale(0.100000,-0.100000)"
fill="#000000" stroke="none">
<path d="M24920 48034 c-891 -21 -1682 -65 -2415 -135 -3496 -332 -6416 -1242
-8805 -2742 -1432 -899 -2681 -2031 -3716 -3363 -1694 -2182 -2851 -4957
-3458 -8294 -342 -1877 -506 -3862 -506 -6115 0 -3618 435 -6684 1329 -9365
979 -2935 2506 -5302 4575 -7094 1162 -1006 2488 -1827 4006 -2478 2657 -1141
5900 -1718 9660 -1718 4967 0 8990 1000 12067 2997 634 412 1214 856 1803
1381 224 200 850 825 1052 1052 379 424 713 841 1024 1275 1608 2249 2680
5061 3218 8440 366 2294 489 4970 351 7620 -287 5493 -1740 9784 -4349 12835
-423 494 -953 1032 -1431 1450 -1887 1653 -4209 2818 -6995 3510 -1688 419
-3460 652 -5565 730 -267 10 -1585 20 -1845 14z m5142 -10622 c79 -38 149
-110 186 -190 25 -52 27 -67 26 -177 0 -97 -5 -131 -23 -180 -68 -187 -180
-723 -261 -1253 -36 -237 -80 -961 -80 -1322 0 -446 27 -716 83 -829 31 -64
32 -69 35 -224 3 -138 1 -168 -17 -226 -84 -278 -425 -391 -670 -223 -150 103
-218 309 -162 493 38 126 73 359 96 649 8 107 24 294 35 415 10 121 24 301 30
400 6 99 20 288 31 420 10 132 19 243 19 248 0 4 -26 -14 -57 -40 -170 -137
-379 -229 -582 -254 -174 -22 -393 16 -548 94 -139 71 -360 241 -469 360 -31
34 -108 131 -171 216 -63 84 -146 186 -185 225 -133 136 -180 243 -182 416 -1
109 1 118 30 181 54 113 137 187 253 224 79 26 208 17 281 -18 109 -52 182
-134 220 -248 12 -35 48 -104 79 -154 32 -49 80 -128 106 -175 115 -201 241
-353 335 -400 96 -49 259 -32 381 38 89 51 268 233 348 351 77 117 109 179
178 350 59 148 60 150 72 366 8 130 13 160 39 226 38 98 79 158 142 204 79 58
139 76 246 72 79 -2 100 -7 156 -35z m-5081 -538 c93 -27 165 -73 237 -148 70
-75 144 -191 180 -286 36 -91 87 -294 126 -495 64 -331 222 -1013 232 -1002 2
2 11 122 19 268 16 267 23 348 50 564 8 66 22 184 30 263 30 271 81 409 188
509 135 126 263 149 437 81 107 -42 161 -89 224 -198 44 -74 82 -194 152 -474
124 -497 188 -685 325 -956 116 -231 204 -392 276 -507 36 -58 50 -73 76 -79
103 -22 217 -117 265 -222 48 -105 42 -331 -14 -448 -45 -95 -143 -187 -236
-220 -177 -64 -344 -21 -486 123 -106 109 -153 213 -398 878 -80 215 -170 448
-202 520 l-57 130 -3 -50 c-2 -28 1 -106 7 -175 35 -419 39 -864 8 -975 -39
-137 -128 -266 -225 -322 -71 -42 -188 -73 -273 -73 -131 0 -222 43 -330 157
-66 69 -86 106 -164 303 -81 205 -119 319 -171 520 -25 96 -74 267 -109 380
-36 113 -89 293 -120 400 -68 239 -135 434 -145 423 -11 -12 -58 -263 -69
-373 -42 -402 -39 -743 13 -1392 45 -566 61 -714 86 -812 24 -95 25 -133 5
-209 -40 -155 -148 -260 -304 -297 -117 -28 -278 19 -361 105 l-34 35 -12 -58
c-28 -135 -115 -247 -241 -309 -67 -33 -85 -38 -167 -41 -70 -3 -105 1 -152
16 -128 40 -234 141 -285 270 -21 52 -23 71 -21 223 2 133 -3 204 -23 345 -25
180 -48 408 -60 584 -6 95 -35 336 -81 680 -20 153 -82 466 -90 457 -6 -6 -44
-524 -49 -672 -16 -457 -40 -630 -115 -833 -48 -129 -123 -210 -254 -275 -194
-98 -374 -65 -540 96 -146 142 -163 181 -412 912 -36 104 -67 192 -71 195 -12
11 7 -547 26 -755 49 -532 50 -538 70 -559 11 -12 32 -48 48 -81 25 -54 28
-70 28 -170 0 -101 -2 -115 -29 -169 -41 -85 -191 -237 -271 -277 -248 -121
-529 17 -586 289 -15 72 -7 270 20 542 38 373 60 652 71 895 6 132 15 296 20
365 6 69 17 265 25 435 8 171 18 321 21 335 3 14 9 122 13 240 7 203 9 218 34
273 53 117 163 202 295 227 157 31 286 -8 409 -124 117 -110 152 -199 243
-621 70 -326 152 -616 213 -762 29 -67 55 -123 58 -123 7 0 13 31 118 565 39
198 78 405 86 460 38 249 109 510 176 648 126 261 358 343 595 211 89 -49 147
-111 189 -199 108 -228 163 -519 215 -1145 6 -69 24 -219 40 -335 16 -115 41
-300 55 -410 48 -369 116 -631 225 -870 l27 -60 6 55 c15 128 29 280 47 515
37 472 50 650 60 860 13 246 40 531 75 770 13 94 29 215 35 270 19 171 67 432
114 625 71 290 93 343 187 438 106 108 243 146 380 106z m-9941 -1050 c215
-31 407 -100 591 -212 216 -132 814 -568 1002 -731 204 -176 316 -334 380
-537 165 -523 -8 -1274 -383 -1668 -221 -231 -545 -395 -1005 -506 -71 -17
-204 -56 -295 -87 -193 -65 -255 -70 -380 -33 -99 29 -124 43 -188 104 -87 82
-143 223 -129 327 5 37 1 47 -38 100 -92 126 -110 265 -74 579 12 98 8 155
-25 455 -9 72 -20 207 -26 300 -13 199 -43 466 -105 909 -25 175 -45 332 -45
349 0 17 -12 65 -26 106 -23 65 -26 88 -22 166 10 218 151 353 413 396 63 10
218 2 355 -17z m2980 -44 c171 -32 300 -162 331 -333 23 -123 -17 -250 -107
-347 l-45 -48 -19 -228 c-48 -580 -50 -783 -11 -1009 30 -171 62 -280 130
-448 118 -289 207 -457 284 -540 l44 -48 36 21 c185 109 521 710 647 1154 l34
118 -19 368 c-26 526 -17 674 51 839 35 87 75 143 137 193 79 63 149 91 238
96 224 13 391 -147 406 -388 4 -77 4 -81 -66 -314 -24 -80 -37 -220 -54 -596
-25 -511 17 -839 128 -1025 51 -84 82 -113 137 -130 118 -35 202 -105 255
-214 24 -50 28 -67 28 -156 0 -90 -3 -106 -30 -160 -55 -114 -159 -192 -291
-216 -32 -6 -108 -9 -169 -6 -150 6 -249 43 -340 128 -68 64 -142 165 -203
278 l-39 72 -67 -136 c-244 -504 -447 -679 -786 -678 -97 0 -126 4 -187 25
-199 70 -317 197 -455 486 -91 191 -163 370 -248 617 -38 110 -89 259 -114
330 -97 278 -138 494 -161 840 -8 127 -22 316 -31 420 -22 255 -15 527 16 635
41 143 104 236 214 314 114 81 213 107 326 86z m15447 -4142 c57 -21 143 -92
178 -147 48 -78 57 -128 50 -288 -6 -138 -3 -181 49 -643 73 -648 162 -1155
306 -1735 123 -496 135 -564 135 -760 0 -207 -17 -293 -78 -408 -104 -198
-269 -285 -484 -258 -209 27 -356 142 -719 562 -60 69 -235 267 -389 439 -476
533 -547 622 -774 963 -131 198 -323 481 -334 492 -6 6 -7 -182 -4 -520 6
-582 31 -1122 73 -1565 37 -401 37 -403 20 -559 -13 -117 -21 -154 -45 -205
-40 -81 -83 -131 -153 -176 -273 -177 -639 3 -656 323 -5 91 14 242 53 412 34
155 54 314 70 580 38 619 44 854 46 1770 2 852 1 924 -16 979 -28 93 -18 222
22 309 81 172 274 276 458 247 136 -22 237 -92 321 -222 57 -88 71 -123 90
-226 57 -313 365 -1024 593 -1370 259 -394 457 -618 941 -1069 l145 -135 3 59
c5 86 -15 319 -48 568 -16 121 -47 380 -69 575 -68 597 -184 1263 -263 1510
-39 122 -37 225 6 313 86 176 286 254 473 185z m-5114 -1141 c87 -43 146 -103
184 -185 l25 -53 61 8 c117 14 307 8 377 -11 98 -27 255 -107 346 -175 310
-231 572 -711 654 -1196 51 -299 62 -754 25 -1030 -51 -388 -186 -681 -422
-918 -380 -381 -983 -440 -1575 -153 -254 123 -448 306 -561 532 -79 158 -119
340 -139 632 -19 272 9 908 52 1212 32 231 128 652 197 865 53 167 156 331
251 400 121 88 211 116 358 112 83 -3 99 -6 167 -40z m-1341 9 c190 -38 303
-109 402 -254 45 -68 66 -135 73 -238 13 -189 -47 -331 -175 -412 -148 -94
-333 -77 -461 43 -47 44 -111 149 -111 182 0 7 -12 14 -30 15 -16 0 -35 1 -41
2 -7 1 -17 -17 -24 -39 -16 -55 -41 -100 -85 -156 -34 -43 -39 -58 -54 -156
-36 -225 -52 -491 -72 -1138 -10 -324 22 -762 68 -934 l23 -85 57 -17 c77 -23
136 -58 187 -114 83 -90 116 -203 100 -347 -11 -96 -33 -156 -86 -234 -119
-174 -283 -242 -486 -200 -214 44 -308 144 -396 420 -74 231 -85 370 -78 966
5 427 1 594 -34 1445 -6 160 -9 332 -5 383 3 50 2 92 -3 92 -43 0 -433 -143
-636 -233 -177 -79 -326 -103 -465 -77 -209 40 -351 220 -338 429 7 108 38
179 108 255 71 76 143 113 254 132 45 8 108 21 141 29 33 8 143 28 245 45 102
17 244 42 315 55 188 35 387 62 575 80 91 8 215 22 275 31 316 44 621 56 757
30z m-6659 -324 c123 -61 204 -167 229 -300 17 -92 -4 -356 -63 -787 -66 -481
-108 -1121 -88 -1340 30 -330 92 -488 258 -658 86 -89 138 -130 212 -168 54
-27 112 -81 147 -137 149 -233 12 -540 -262 -591 -61 -11 -208 -1 -291 20 -77
20 -153 70 -228 148 -162 171 -244 308 -318 533 l-43 128 -39 -73 c-125 -231
-338 -439 -533 -521 -118 -49 -203 -68 -335 -73 -96 -4 -142 -2 -198 11 -187
43 -372 188 -506 400 -105 165 -160 361 -190 671 -8 88 -17 171 -20 185 -30
162 -67 1707 -44 1835 31 174 165 306 337 334 205 33 465 -129 537 -334 25
-72 23 -194 -4 -266 -20 -51 -33 -73 -100 -159 -22 -28 -54 -196 -98 -510 -25
-183 -27 -218 -28 -565 0 -405 2 -424 64 -594 59 -163 144 -240 255 -232 15 1
60 16 100 35 209 97 399 447 531 980 82 329 98 439 136 918 20 261 20 273 4
484 -21 264 -18 339 19 419 49 108 117 172 233 221 51 22 70 24 159 22 90 -3
107 -7 167 -36z m-3744 -28 c210 -31 357 -72 481 -134 204 -102 359 -279 427
-485 34 -105 43 -287 19 -392 -41 -182 -156 -373 -327 -544 -77 -77 -225 -199
-312 -259 l-49 -32 63 -35 c297 -165 466 -364 577 -683 50 -146 65 -246 59
-400 -6 -148 -31 -248 -89 -365 -99 -197 -268 -363 -481 -475 -268 -141 -461
-180 -890 -180 -114 0 -251 -6 -305 -12 -53 -7 -137 -13 -187 -12 -80 0 -97 4
-157 32 -47 23 -84 51 -125 95 -38 42 -78 73 -118 92 -130 62 -222 196 -232
337 -4 59 2 108 31 252 68 336 70 350 69 711 -2 367 -3 382 -104 905 l-42 215
-81 86 c-96 100 -127 154 -157 269 -20 77 -21 94 -11 181 7 71 18 113 41 163
21 43 34 89 37 129 13 160 93 281 231 349 90 44 209 51 311 18 l68 -22 99 30
c260 79 627 161 780 175 104 10 278 6 374 -9z m6962 -14 c211 -66 318 -287
244 -506 -47 -141 -104 -205 -245 -273 -92 -45 -97 -46 -190 -46 -91 0 -101 2
-170 37 l-74 36 -37 -41 c-60 -67 -73 -140 -176 -1017 -26 -217 -28 -264 -28
-605 0 -317 3 -383 18 -460 32 -161 45 -192 92 -219 107 -63 176 -181 183
-311 4 -99 -9 -145 -74 -256 -64 -108 -132 -177 -214 -217 -184 -89 -365 -54
-524 101 -169 166 -205 347 -153 787 15 118 33 330 42 470 8 140 20 307 25
370 5 63 10 395 10 738 l0 622 -22 -5 c-257 -61 -250 -59 -306 -114 -32 -31
-82 -66 -120 -84 -61 -29 -75 -32 -168 -32 -100 0 -102 0 -195 47 -143 71
-213 151 -251 287 -63 228 53 437 277 500 59 16 433 66 720 96 138 14 277 30
310 35 98 14 268 29 470 40 105 6 228 17 275 24 126 20 208 19 281 -4z m10673
-12391 c76 -28 148 -96 187 -175 28 -57 33 -78 37 -167 l4 -102 -115 -436
c-130 -489 -173 -676 -216 -929 -72 -419 -92 -659 -93 -1090 0 -406 18 -602
78 -806 l16 -55 36 8 c166 35 330 -44 404 -195 30 -61 33 -74 32 -157 0 -83
-4 -100 -48 -215 -65 -169 -100 -231 -158 -286 -89 -83 -202 -119 -358 -112
-170 7 -285 91 -370 271 -57 121 -133 342 -154 447 -79 391 -89 1034 -31 1864
l6 78 -38 -31 c-162 -137 -314 -228 -458 -276 -586 -195 -1088 18 -1368 580
-122 245 -188 620 -142 807 39 161 101 294 170 364 227 229 614 112 681 -207
26 -126 -9 -253 -99 -355 -40 -45 -42 -51 -40 -103 7 -143 111 -329 214 -382
51 -25 170 -43 241 -35 68 8 186 45 276 88 209 98 450 366 602 668 49 98 174
477 204 618 24 116 53 178 109 236 108 109 246 140 391 85z m-9151 -317 c80
-37 145 -101 184 -180 25 -51 28 -68 28 -157 0 -88 -3 -107 -27 -157 -35 -74
-45 -159 -52 -408 -10 -348 23 -891 90 -1465 31 -274 125 -868 194 -1230 47
-251 40 -347 -40 -504 -89 -178 -249 -271 -442 -258 -68 4 -94 12 -172 49
-236 115 -349 275 -625 890 -60 134 -139 315 -176 403 -37 88 -120 273 -185
410 -64 138 -128 277 -141 309 l-24 59 -3 -364 c-3 -393 9 -788 34 -1072 l15
-178 45 -45 c25 -25 60 -75 77 -112 30 -62 32 -75 32 -172 0 -98 -2 -110 -32
-170 -18 -36 -58 -93 -90 -127 -32 -35 -80 -88 -107 -118 -88 -99 -192 -140
-330 -133 -107 6 -191 45 -265 123 -121 128 -140 252 -97 650 141 1303 148
1419 151 2185 1 305 5 572 9 593 5 23 3 76 -5 132 -22 161 11 265 116 371 71
72 143 104 251 111 213 15 396 -142 496 -427 11 -30 58 -207 104 -393 87 -346
157 -574 271 -872 76 -200 141 -336 255 -535 100 -175 93 -193 79 227 -6 164
-15 444 -21 623 -12 385 -23 609 -50 1020 -20 294 -27 349 -65 490 -33 123 -2
250 86 345 114 124 282 158 432 87z m4020 -32 c212 -79 315 -326 224 -536 -29
-68 -47 -227 -47 -416 l0 -113 51 95 c204 380 491 638 790 710 101 24 271 27
371 6 158 -34 304 -114 421 -233 159 -161 249 -327 293 -543 23 -114 15 -332
-16 -440 -40 -138 -85 -215 -190 -321 -109 -110 -196 -169 -365 -250 -192 -92
-433 -156 -665 -176 l-85 -8 85 -66 c242 -189 513 -364 682 -440 428 -193 668
-248 886 -203 193 40 362 -37 444 -204 31 -62 33 -74 33 -167 0 -88 -3 -107
-27 -157 -54 -116 -159 -196 -286 -220 -52 -10 -79 -9 -160 6 -53 9 -126 22
-162 28 -214 35 -586 186 -935 379 -71 39 -200 107 -285 151 -242 126 -344
186 -694 412 l-59 39 6 -199 c8 -242 13 -270 78 -487 33 -111 54 -198 57 -244
13 -202 -80 -367 -256 -451 -73 -35 -82 -37 -177 -37 -80 0 -112 5 -160 23
-116 44 -214 140 -256 252 -15 40 -24 96 -31 205 -11 173 -6 227 52 560 l38
220 -5 283 c-4 196 -9 282 -17 282 -6 0 -56 -13 -111 -28 -55 -16 -132 -37
-171 -46 l-71 -18 -6 -151 c-6 -163 -25 -264 -89 -457 -128 -390 -448 -784
-758 -932 -308 -146 -625 -109 -915 108 -226 169 -358 366 -476 711 -132 386
-205 953 -170 1323 36 376 176 827 338 1090 202 326 433 479 750 497 185 10
399 -52 582 -171 40 -25 94 -58 123 -72 250 -127 305 -456 108 -653 -89 -89
-224 -133 -346 -113 -101 17 -197 73 -255 147 -35 46 -106 104 -136 111 -45
12 -101 -16 -156 -76 -61 -67 -159 -229 -215 -355 -42 -96 -106 -285 -118
-349 l-7 -38 54 44 c118 95 237 119 469 93 192 -22 350 -53 555 -112 82 -24
100 -25 210 -19 142 7 285 38 477 102 121 40 147 45 207 42 l69 -3 -4 30 c-17
126 -60 412 -93 625 -47 308 -54 395 -42 524 8 84 16 112 47 175 106 215 313
307 517 231z m-7989 -932 c71 -27 90 -40 157 -107 66 -67 84 -94 142 -211 100
-202 182 -463 360 -1145 l62 -240 125 -5 c103 -5 133 -10 168 -28 69 -36 117
-87 147 -154 77 -172 -9 -364 -191 -423 l-63 -20 59 -175 c32 -96 94 -272 138
-390 44 -118 112 -314 151 -435 39 -121 89 -258 111 -305 103 -211 93 -343
-37 -512 -124 -162 -340 -211 -521 -119 -62 31 -136 105 -169 168 -37 70 -81
205 -89 276 -8 67 16 165 56 229 l29 47 -14 101 c-15 105 -48 261 -89 415 -19
72 -185 629 -200 671 -7 19 -271 -16 -479 -63 l-69 -15 7 -76 c43 -505 95
-895 145 -1092 35 -137 19 -284 -43 -406 -76 -150 -267 -246 -428 -216 -230
43 -359 220 -405 557 -26 195 -7 297 75 399 26 32 31 48 31 90 0 57 16 384 25
517 l6 87 -66 30 c-87 41 -166 121 -208 209 -29 62 -32 77 -32 163 0 86 3 101
32 162 17 37 50 87 73 112 44 47 138 101 195 112 33 6 34 7 39 67 3 34 8 109
11 167 3 58 12 193 20 300 8 107 19 276 25 375 26 425 73 617 188 762 48 60
157 129 235 149 79 21 193 10 291 -28z"/>
<path d="M15085 34983 c-5 -54 -5 -289 -1 -523 9 -553 32 -786 101 -1040 19
-69 41 -159 50 -200 9 -41 27 -104 40 -140 14 -36 29 -83 34 -105 7 -27 27
-56 59 -88 l49 -49 104 25 c150 37 342 101 434 147 223 111 377 297 435 528
49 195 49 475 1 614 -55 159 -240 359 -491 530 -232 158 -425 277 -518 320
-92 42 -210 78 -258 78 l-32 0 -7 -97z"/>
<path d="M28184 29659 c-50 -99 -134 -330 -169 -462 -88 -336 -125 -690 -106
-998 33 -508 107 -667 376 -801 167 -84 310 -120 475 -121 179 0 267 39 411
182 73 74 93 101 137 191 95 194 141 421 149 735 6 230 -6 353 -52 528 -73
279 -239 508 -447 613 -39 20 -62 24 -133 24 -47 0 -118 -7 -157 -16 -183 -42
-331 6 -429 139 l-28 38 -27 -52z"/>
<path d="M16309 29570 c-125 -14 -256 -49 -404 -107 -178 -70 -355 -161 -355
-182 0 -9 10 -41 21 -71 25 -65 29 -190 8 -258 -12 -37 -12 -77 0 -255 7 -117
15 -214 17 -216 7 -8 153 29 279 70 154 51 434 190 550 273 263 190 413 363
431 497 23 167 -235 285 -547 249z"/>
<path d="M16187 27734 c-92 -14 -411 -77 -484 -96 -42 -10 -43 -11 -38 -47 3
-20 12 -103 20 -186 24 -230 52 -382 83 -442 l26 -53 206 0 c413 0 618 48 744
175 95 94 116 181 81 320 -35 136 -104 224 -224 284 -118 60 -236 73 -414 45z"/>
<path d="M30170 16523 c-110 -38 -218 -133 -308 -271 -50 -77 -159 -293 -196
-389 l-16 -43 64 0 c188 0 506 110 674 235 82 59 117 130 109 215 -6 73 -35
134 -93 199 -62 69 -140 87 -234 54z"/>
<path d="M26620 15154 c0 -39 56 -312 84 -414 53 -185 121 -316 216 -411 97
-98 152 -130 233 -136 61 -5 64 -3 150 48 227 137 396 387 414 612 l6 77 -44
-5 c-79 -8 -301 -26 -419 -34 -170 -10 -341 18 -449 73 -48 25 -129 102 -163
155 -15 25 -28 41 -28 35z"/>
<path d="M20957 15519 c-15 -57 -37 -312 -46 -524 -4 -126 -8 -231 -7 -231 0
-1 78 1 173 4 l171 5 -49 141 c-52 147 -197 536 -222 595 -14 32 -14 32 -20
10z"/>
</g>
</svg>
