<?xml version="1.0" standalone="no"?>
<!DOCTYPE svg PUBLIC "-//W3C//DTD SVG 20010904//EN"
        "http://www.w3.org/TR/2001/REC-SVG-20010904/DTD/svg10.dtd">
<svg version="1.0" xmlns="http://www.w3.org/2000/svg"
     width="5200.000000pt" height="5200.000000pt" viewBox="0 0 5200.000000 5200.000000"
     preserveAspectRatio="xMidYMid meet">

    <g transform="translate(0.000000,5200.000000) scale(0.100000,-0.100000)"
       fill="#000000" stroke="none">
        <path d="M24920 48034 c-891 -21 -1682 -65 -2415 -135 -3496 -332 -6416 -1242
-8805 -2742 -1432 -899 -2681 -2031 -3716 -3363 -1694 -2182 -2851 -4957
-3458 -8294 -342 -1877 -506 -3862 -506 -6115 0 -3618 435 -6684 1329 -9365
979 -2935 2506 -5302 4575 -7094 1162 -1006 2488 -1827 4006 -2478 2657 -1141
5900 -1718 9660 -1718 4967 0 8990 1000 12067 2997 634 412 1214 856 1803
1381 224 200 850 825 1052 1052 379 424 713 841 1024 1275 1608 2249 2680
5061 3218 8440 366 2294 489 4970 351 7620 -287 5493 -1740 9784 -4349 12835
-423 494 -953 1032 -1431 1450 -1887 1653 -4209 2818 -6995 3510 -1688 419
-3460 652 -5565 730 -267 10 -1585 20 -1845 14z m5142 -10622 c79 -38 149
-110 186 -190 25 -52 27 -67 26 -177 0 -97 -5 -131 -23 -180 -68 -187 -180
-723 -261 -1253 -36 -237 -80 -961 -80 -1322 0 -446 27 -716 83 -829 31 -64
32 -69 35 -224 3 -138 1 -168 -17 -226 -84 -278 -425 -391 -670 -223 -150 103
-218 309 -162 493 38 126 73 359 96 649 8 107 24 294 35 415 10 121 24 301 30
400 6 99 20 288 31 420 10 132 19 243 19 248 0 4 -26 -14 -57 -40 -170 -137
-379 -229 -582 -254 -174 -22 -393 16 -548 94 -139 71 -360 241 -469 360 -31
34 -108 131 -171 216 -63 84 -146 186 -185 225 -133 136 -180 243 -182 416 -1
109 1 118 30 181 54 113 137 187 253 224 79 26 208 17 281 -18 109 -52 182
-134 220 -248 12 -35 48 -104 79 -154 32 -49 80 -128 106 -175 115 -201 241
-353 335 -400 96 -49 259 -32 381 38 89 51 268 233 348 351 77 117 109 179
178 350 59 148 60 150 72 366 8 130 13 160 39 226 38 98 79 158 142 204 79 58
139 76 246 72 79 -2 100 -7 156 -35z m-5081 -538 c93 -27 165 -73 237 -148 70
-75 144 -191 180 -286 36 -91 87 -294 126 -495 64 -331 222 -1013 232 -1002 2
2 11 122 19 268 16 267 23 348 50 564 8 66 22 184 30 263 30 271 81 409 188
509 135 126 263 149 437 81 107 -42 161 -89 224 -198 44 -74 82 -194 152 -474
124 -497 188 -685 325 -956 116 -231 204 -392 276 -507 36 -58 50 -73 76 -79
103 -22 217 -117 265 -222 48 -105 42 -331 -14 -448 -45 -95 -143 -187 -236
-220 -177 -64 -344 -21 -486 123 -106 109 -153 213 -398 878 -80 215 -170 448
-202 520 l-57 130 -3 -50 c-2 -28 1 -106 7 -175 35 -419 39 -864 8 -975 -39
-137 -128 -266 -225 -322 -71 -42 -188 -73 -273 -73 -131 0 -222 43 -330 157
-66 69 -86 106 -164 303 -81 205 -119 319 -171 520 -25 96 -74 267 -109 380
-36 113 -89 293 -120 400 -68 239 -135 434 -145 423 -11 -12 -58 -263 -69
-373 -42 -402 -39 -743 13 -1392 45 -566 61 -714 86 -812 24 -95 25 -133 5
-209 -40 -155 -148 -260 -304 -297 -117 -28 -278 19 -361 105 l-34 35 -12 -58
c-28 -135 -115 -247 -241 -309 -67 -33 -85 -38 -167 -41 -70 -3 -105 1 -152
16 -128 40 -234 141 -285 270 -21 52 -23 71 -21 223 2 133 -3 204 -23 345 -25
180 -48 408 -60 584 -6 95 -35 336 -81 680 -20 153 -82 466 -90 457 -6 -6 -44
-524 -49 -672 -16 -457 -40 -630 -115 -833 -48 -129 -123 -210 -254 -275 -194
-98 -374 -65 -540 96 -146 142 -163 181 -412 912 -36 104 -67 192 -71 195 -12
11 7 -547 26 -755 49 -532 50 -538 70 -559 11 -12 32 -48 48 -81 25 -54 28
-70 28 -170 0 -101 -2 -115 -29 -169 -41 -85 -191 -237 -271 -277 -248 -121
-529 17 -586 289 -15 72 -7 270 20 542 38 373 60 652 71 895 6 132 15 296 20
365 6 69 17 265 25 435 8 171 18 321 21 335 3 14 9 122 13 240 7 203 9 218 34
273 53 117 163 202 295 227 157 31 286 -8 409 -124 117 -110 152 -199 243
-621 70 -326 152 -616 213 -762 29 -67 55 -123 58 -123 7 0 13 31 118 565 39
198 78 405 86 460 38 249 109 510 176 648 126 261 358 343 595 211 89 -49 147
-111 189 -199 108 -228 163 -519 215 -1145 6 -69 24 -219 40 -335 16 -115 41
-300 55 -410 48 -369 116 -631 225 -870 l27 -60 6 55 c15 128 29 280 47 515
37 472 50 650 60 860 13 246 40 531 75 770 13 94 29 215 35 270 19 171 67 432
114 625 71 290 93 343 187 438 106 108 243 146 380 106z m-9941 -1050 c215
-31 407 -100 591 -212 216 -132 814 -568 1002 -731 204 -176 316 -334 380
-537 165 -523 -8 -1274 -383 -1668 -221 -231 -545 -395 -1005 -506 -71 -17
-204 -56 -295 -87 -193 -65 -255 -70 -380 -33 -99 29 -124 43 -188 104 -87 82
-143 223 -129 327 5 37 1 47 -38 100 -92 126 -110 265 -74 579 12 98 8 155
-25 455 -9 72 -20 207 -26 300 -13 199 -43 466 -105 909 -25 175 -45 332 -45
349 0 17 -12 65 -26 106 -23 65 -26 88 -22 166 10 218 151 353 413 396 63 10
218 2 355 -17z m2980 -44 c171 -32 300 -162 331 -333 23 -123 -17 -250 -107
-347 l-45 -48 -19 -228 c-48 -580 -50 -783 -11 -1009 30 -171 62 -280 130
-448 118 -289 207 -457 284 -540 l44 -48 36 21 c185 109 521 710 647 1154 l34
118 -19 368 c-26 526 -17 674 51 839 35 87 75 143 137 193 79 63 149 91 238
96 224 13 391 -147 406 -388 4 -77 4 -81 -66 -314 -24 -80 -37 -220 -54 -596
-25 -511 17 -839 128 -1025 51 -84 82 -113 137 -130 118 -35 202 -105 255
-214 24 -50 28 -67 28 -156 0 -90 -3 -106 -30 -160 -55 -114 -159 -192 -291
-216 -32 -6 -108 -9 -169 -6 -150 6 -249 43 -340 128 -68 64 -142 165 -203
278 l-39 72 -67 -136 c-244 -504 -447 -679 -786 -678 -97 0 -126 4 -187 25
-199 70 -317 197 -455 486 -91 191 -163 370 -248 617 -38 110 -89 259 -114
330 -97 278 -138 494 -161 840 -8 127 -22 316 -31 420 -22 255 -15 527 16 635
41 143 104 236 214 314 114 81 213 107 326 86z m15447 -4142 c57 -21 143 -92
178 -147 48 -78 57 -128 50 -288 -6 -138 -3 -181 49 -643 73 -648 162 -1155
306 -1735 123 -496 135 -564 135 -760 0 -207 -17 -293 -78 -408 -104 -198
-269 -285 -484 -258 -209 27 -356 142 -719 562 -60 69 -235 267 -389 439 -476
533 -547 622 -774 963 -131 198 -323 481 -334 492 -6 6 -7 -182 -4 -520 6
-582 31 -1122 73 -1565 37 -401 37 -403 20 -559 -13 -117 -21 -154 -45 -205
-40 -81 -83 -131 -153 -176 -273 -177 -639 3 -656 323 -5 91 14 242 53 412 34
155 54 314 70 580 38 619 44 854 46 1770 2 852 1 924 -16 979 -28 93 -18 222
22 309 81 172 274 276 458 247 136 -22 237 -92 321 -222 57 -88 71 -123 90
-226 57 -313 365 -1024 593 -1370 259 -394 457 -618 941 -1069 l145 -135 3 59
c5 86 -15 319 -48 568 -16 121 -47 380 -69 575 -68 597 -184 1263 -263 1510
-39 122 -37 225 6 313 86 176 286 254 473 185z m-5114 -1141 c87 -43 146 -103
184 -185 l25 -53 61 8 c117 14 307 8 377 -11 98 -27 255 -107 346 -175 310
-231 572 -711 654 -1196 51 -299 62 -754 25 -1030 -51 -388 -186 -681 -422
-918 -380 -381 -983 -440 -1575 -153 -254 123 -448 306 -561 532 -79 158 -119
340 -139 632 -19 272 9 908 52 1212 32 231 128 652 197 865 53 167 156 331
251 400 121 88 211 116 358 112 83 -3 99 -6 167 -40z m-1341 9 c190 -38 303
-109 402 -254 45 -68 66 -135 73 -238 13 -189 -47 -331 -175 -412 -148 -94
-333 -77 -461 43 -47 44 -111 149 -111 182 0 7 -12 14 -30 15 -16 0 -35 1 -41
2 -7 1 -17 -17 -24 -39 -16 -55 -41 -100 -85 -156 -34 -43 -39 -58 -54 -156
-36 -225 -52 -491 -72 -1138 -10 -324 22 -762 68 -934 l23 -85 57 -17 c77 -23
136 -58 187 -114 83 -90 116 -203 100 -347 -11 -96 -33 -156 -86 -234 -119
-174 -283 -242 -486 -200 -214 44 -308 144 -396 420 -74 231 -85 370 -78 966
5 427 1 594 -34 1445 -6 160 -9 332 -5 383 3 50 2 92 -3 92 -43 0 -433 -143
-636 -233 -177 -79 -326 -103 -465 -77 -209 40 -351 220 -338 429 7 108 38
179 108 255 71 76 143 113 254 132 45 8 108 21 141 29 33 8 143 28 245 45 102
17 244 42 315 55 188 35 387 62 575 80 91 8 215 22 275 31 316 44 621 56 757
30z m-6659 -324 c123 -61 204 -167 229 -300 17 -92 -4 -356 -63 -787 -66 -481
-108 -1121 -88 -1340 30 -330 92 -488 258 -658 86 -89 138 -130 212 -168 54
-27 112 -81 147 -137 149 -233 12 -540 -262 -591 -61 -11 -208 -1 -291 20 -77
20 -153 70 -228 148 -162 171 -244 308 -318 533 l-43 128 -39 -73 c-125 -231
-338 -439 -533 -521 -118 -49 -203 -68 -335 -73 -96 -4 -142 -2 -198 11 -187
43 -372 188 -506 400 -105 165 -160 361 -190 671 -8 88 -17 171 -20 185 -30
162 -67 1707 -44 1835 31 174 165 306 337 334 205 33 465 -129 537 -334 25
-72 23 -194 -4 -266 -20 -51 -33 -73 -100 -159 -22 -28 -54 -196 -98 -510 -25
-183 -27 -218 -28 -565 0 -405 2 -424 64 -594 59 -163 144 -240 255 -232 15 1
60 16 100 35 209 97 399 447 531 980 82 329 98 439 136 918 20 261 20 273 4
484 -21 264 -18 339 19 419 49 108 117 172 233 221 51 22 70 24 159 22 90 -3
107 -7 167 -36z m-3744 -28 c210 -31 357 -72 481 -134 204 -102 359 -279 427
-485 34 -105 43 -287 19 -392 -41 -182 -156 -373 -327 -544 -77 -77 -225 -199
-312 -259 l-49 -32 63 -35 c297 -165 466 -364 577 -683 50 -146 65 -246 59
-400 -6 -148 -31 -248 -89 -365 -99 -197 -268 -363 -481 -475 -268 -141 -461
-180 -890 -180 -114 0 -251 -6 -305 -12 -53 -7 -137 -13 -187 -12 -80 0 -97 4
-157 32 -47 23 -84 51 -125 95 -38 42 -78 73 -118 92 -130 62 -222 196 -232
337 -4 59 2 108 31 252 68 336 70 350 69 711 -2 367 -3 382 -104 905 l-42 215
-81 86 c-96 100 -127 154 -157 269 -20 77 -21 94 -11 181 7 71 18 113 41 163
21 43 34 89 37 129 13 160 93 281 231 349 90 44 209 51 311 18 l68 -22 99 30
c260 79 627 161 780 175 104 10 278 6 374 -9z m6962 -14 c211 -66 318 -287
244 -506 -47 -141 -104 -205 -245 -273 -92 -45 -97 -46 -190 -46 -91 0 -101 2
-170 37 l-74 36 -37 -41 c-60 -67 -73 -140 -176 -1017 -26 -217 -28 -264 -28
-605 0 -317 3 -383 18 -460 32 -161 45 -192 92 -219 107 -63 176 -181 183
-311 4 -99 -9 -145 -74 -256 -64 -108 -132 -177 -214 -217 -184 -89 -365 -54
-524 101 -169 166 -205 347 -153 787 15 118 33 330 42 470 8 140 20 307 25
370 5 63 10 395 10 738 l0 622 -22 -5 c-257 -61 -250 -59 -306 -114 -32 -31
-82 -66 -120 -84 -61 -29 -75 -32 -168 -32 -100 0 -102 0 -195 47 -143 71
-213 151 -251 287 -63 228 53 437 277 500 59 16 433 66 720 96 138 14 277 30
310 35 98 14 268 29 470 40 105 6 228 17 275 24 126 20 208 19 281 -4z m47
-9745 c93 -29 146 -65 203 -137 94 -120 165 -303 209 -546 73 -394 145 -744
202 -977 33 -137 61 -251 62 -252 1 -1 82 11 181 27 98 16 301 45 450 65 148
20 308 42 355 50 212 36 516 75 580 75 44 0 88 -7 120 -19 34 -13 50 -15 50
-7 0 6 -11 90 -24 186 -14 96 -30 222 -36 280 -18 170 -4 154 -123 146 -78 -5
-116 -3 -162 9 -159 42 -276 166 -305 323 -27 151 57 324 192 393 41 21 282
112 488 185 176 62 465 109 880 145 470 40 810 11 1241 -106 656 -178 1130
-580 1324 -1125 182 -510 160 -1129 -61 -1687 -64 -161 -242 -535 -364 -766
-96 -179 -394 -704 -575 -1012 -148 -251 -185 -341 -185 -449 0 -162 -112
-308 -273 -357 -131 -41 -272 -9 -372 83 -71 64 -100 114 -125 214 -27 106
-25 176 5 273 31 98 58 138 217 328 325 385 727 1047 1024 1683 100 216 138
317 180 478 51 197 67 345 61 537 -7 181 -25 296 -69 435 -106 335 -361 591
-733 738 -205 81 -418 120 -705 129 -266 8 -447 -12 -727 -79 l-91 -21 -7 -56
c-3 -31 -12 -76 -20 -101 -41 -132 -61 -868 -30 -1135 42 -370 114 -739 214
-1106 133 -487 214 -705 381 -1037 60 -119 82 -173 88 -218 23 -173 -62 -330
-218 -402 -46 -22 -70 -26 -150 -26 -84 -1 -102 2 -155 27 -147 69 -242 230
-275 467 -16 121 -60 327 -129 615 -55 229 -114 495 -207 935 -31 145 -94 490
-94 514 0 4 -17 -4 -37 -20 -20 -15 -61 -38 -91 -50 -53 -21 -61 -22 -390 -17
-369 6 -386 5 -857 -63 -288 -41 -295 -42 -295 -58 0 -7 32 -127 70 -267 39
-140 106 -394 150 -566 118 -457 198 -683 302 -855 84 -137 100 -323 40 -451
-134 -287 -489 -340 -712 -106 -86 90 -112 138 -145 269 -37 145 -33 238 13
332 l32 66 -25 183 c-34 237 -189 921 -274 1207 -20 67 -24 72 -44 66 -108
-32 -263 -84 -364 -121 l-121 -45 -8 -72 c-21 -204 -3 -1060 31 -1491 8 -99
15 -187 15 -195 0 -8 20 -26 45 -39 136 -72 222 -253 195 -409 -16 -91 -50
-156 -136 -255 -72 -83 -127 -129 -188 -155 -44 -19 -161 -42 -216 -42 -66 0
-165 33 -228 75 -64 44 -163 173 -187 245 l-17 50 -136 1 -137 2 90 9 c50 4
108 11 131 14 l41 5 -13 57 c-16 68 -18 228 -4 452 11 180 86 1136 95 1213 5
39 3 47 -11 47 -41 0 -137 66 -218 151 -94 97 -127 153 -150 253 -32 135 -17
231 53 336 72 110 178 190 326 247 38 15 71 27 72 28 1 0 16 140 33 310 54
549 97 846 164 1138 20 84 47 206 61 272 79 371 141 479 308 536 73 26 151 24
245 -6z m-4713 -884 c214 -32 329 -64 730 -204 276 -96 482 -188 700 -312 269
-153 428 -310 508 -501 109 -260 55 -593 -140 -854 -58 -77 -240 -266 -327
-337 l-48 -40 88 -7 c358 -28 616 -101 847 -239 281 -168 431 -387 444 -647 7
-128 -12 -235 -64 -360 -187 -454 -741 -810 -1780 -1145 -366 -118 -555 -171
-863 -244 -334 -79 -394 -85 -501 -51 -113 36 -205 125 -267 258 -24 51 -26
67 -24 150 1 50 3 109 3 130 1 20 -4 210 -10 422 -11 439 -34 678 -127 1320
-60 418 -280 1639 -320 1771 -2 10 -20 20 -38 23 -49 9 -125 52 -169 94 -120
116 -153 265 -98 448 40 134 131 230 265 278 170 61 325 76 756 71 239 -3 333
-8 435 -24z"/>
        <path d="M15085 34983 c-5 -54 -5 -289 -1 -523 9 -553 32 -786 101 -1040 19
-69 41 -159 50 -200 9 -41 27 -104 40 -140 14 -36 29 -83 34 -105 7 -27 27
-56 59 -88 l49 -49 104 25 c150 37 342 101 434 147 223 111 377 297 435 528
49 195 49 475 1 614 -55 159 -240 359 -491 530 -232 158 -425 277 -518 320
-92 42 -210 78 -258 78 l-32 0 -7 -97z"/>
        <path d="M28184 29659 c-50 -99 -134 -330 -169 -462 -88 -336 -125 -690 -106
-998 33 -508 107 -667 376 -801 167 -84 310 -120 475 -121 179 0 267 39 411
182 73 74 93 101 137 191 95 194 141 421 149 735 6 230 -6 353 -52 528 -73
279 -239 508 -447 613 -39 20 -62 24 -133 24 -47 0 -118 -7 -157 -16 -183 -42
-331 6 -429 139 l-28 38 -27 -52z"/>
        <path d="M16309 29570 c-125 -14 -256 -49 -404 -107 -178 -70 -355 -161 -355
-182 0 -9 10 -41 21 -71 25 -65 29 -190 8 -258 -12 -37 -12 -77 0 -255 7 -117
15 -214 17 -216 7 -8 153 29 279 70 154 51 434 190 550 273 263 190 413 363
431 497 23 167 -235 285 -547 249z"/>
        <path d="M16187 27734 c-92 -14 -411 -77 -484 -96 -42 -10 -43 -11 -38 -47 3
-20 12 -103 20 -186 24 -230 52 -382 83 -442 l26 -53 206 0 c413 0 618 48 744
175 95 94 116 181 81 320 -35 136 -104 224 -224 284 -118 60 -236 73 -414 45z"/>
        <path d="M23467 19000 c-36 -261 -74 -656 -64 -666 6 -6 284 50 293 59 7 7
-96 376 -158 567 l-54 165 -17 -125z"/>
        <path d="M18621 18921 c-41 -6 -45 -9 -56 -48 -7 -23 -24 -63 -39 -89 -25 -45
-26 -51 -26 -218 0 -94 5 -245 10 -336 13 -210 102 -1096 112 -1105 2 -2 95
11 208 29 l205 33 130 64 c308 154 637 387 820 581 87 92 198 249 235 331 78
171 -63 340 -425 507 -394 182 -709 262 -1015 258 -63 0 -135 -4 -159 -7z"/>
        <path d="M20005 16740 c-421 -43 -685 -129 -1164 -380 -51 -27 -97 -50 -101
-52 -4 -2 5 -95 20 -208 25 -179 35 -238 56 -337 3 -15 21 -31 52 -47 59 -30
137 -112 163 -172 29 -66 40 -144 28 -215 -5 -34 -9 -63 -7 -64 8 -7 300 50
461 89 385 94 843 288 1128 477 159 106 358 300 407 399 37 73 43 158 16 216
-39 82 -177 175 -340 228 -186 62 -487 89 -719 66z"/>
    </g>
</svg>
