<?xml version="1.0" standalone="no"?>
<!DOCTYPE svg PUBLIC "-//W3C//DTD SVG 20010904//EN"
        "http://www.w3.org/TR/2001/REC-SVG-20010904/DTD/svg10.dtd">
<svg version="1.0" xmlns="http://www.w3.org/2000/svg"
     width="5200.000000pt" height="5200.000000pt" viewBox="0 0 5200.000000 5200.000000"
     preserveAspectRatio="xMidYMid meet">

    <g transform="translate(0.000000,5200.000000) scale(0.100000,-0.100000)"
       fill="#000000" stroke="none">
        <path d="M24920 48034 c-891 -21 -1682 -65 -2415 -135 -3496 -332 -6416 -1242
-8805 -2742 -1432 -899 -2681 -2031 -3716 -3363 -1694 -2182 -2851 -4957
-3458 -8294 -342 -1877 -506 -3862 -506 -6115 0 -3618 435 -6684 1329 -9365
979 -2935 2506 -5302 4575 -7094 1162 -1006 2488 -1827 4006 -2478 2657 -1141
5900 -1718 9660 -1718 4967 0 8990 1000 12067 2997 634 412 1214 856 1803
1381 224 200 850 825 1052 1052 379 424 713 841 1024 1275 1608 2249 2680
5061 3218 8440 366 2294 489 4970 351 7620 -287 5493 -1740 9784 -4349 12835
-423 494 -953 1032 -1431 1450 -1887 1653 -4209 2818 -6995 3510 -1688 419
-3460 652 -5565 730 -267 10 -1585 20 -1845 14z m5142 -10622 c79 -38 149
-110 186 -190 25 -52 27 -67 26 -177 0 -97 -5 -131 -23 -180 -68 -187 -180
-723 -261 -1253 -36 -237 -80 -961 -80 -1322 0 -446 27 -716 83 -829 31 -64
32 -69 35 -224 3 -138 1 -168 -17 -226 -84 -278 -425 -391 -670 -223 -150 103
-218 309 -162 493 38 126 73 359 96 649 8 107 24 294 35 415 10 121 24 301 30
400 6 99 20 288 31 420 10 132 19 243 19 248 0 4 -26 -14 -57 -40 -170 -137
-379 -229 -582 -254 -174 -22 -393 16 -548 94 -139 71 -360 241 -469 360 -31
34 -108 131 -171 216 -63 84 -146 186 -185 225 -133 136 -180 243 -182 416 -1
109 1 118 30 181 54 113 137 187 253 224 79 26 208 17 281 -18 109 -52 182
-134 220 -248 12 -35 48 -104 79 -154 32 -49 80 -128 106 -175 115 -201 241
-353 335 -400 96 -49 259 -32 381 38 89 51 268 233 348 351 77 117 109 179
178 350 59 148 60 150 72 366 8 130 13 160 39 226 38 98 79 158 142 204 79 58
139 76 246 72 79 -2 100 -7 156 -35z m-5081 -538 c93 -27 165 -73 237 -148 70
-75 144 -191 180 -286 36 -91 87 -294 126 -495 64 -331 222 -1013 232 -1002 2
2 11 122 19 268 16 267 23 348 50 564 8 66 22 184 30 263 30 271 81 409 188
509 135 126 263 149 437 81 107 -42 161 -89 224 -198 44 -74 82 -194 152 -474
124 -497 188 -685 325 -956 116 -231 204 -392 276 -507 36 -58 50 -73 76 -79
103 -22 217 -117 265 -222 48 -105 42 -331 -14 -448 -45 -95 -143 -187 -236
-220 -177 -64 -344 -21 -486 123 -106 109 -153 213 -398 878 -80 215 -170 448
-202 520 l-57 130 -3 -50 c-2 -28 1 -106 7 -175 35 -419 39 -864 8 -975 -39
-137 -128 -266 -225 -322 -71 -42 -188 -73 -273 -73 -131 0 -222 43 -330 157
-66 69 -86 106 -164 303 -81 205 -119 319 -171 520 -25 96 -74 267 -109 380
-36 113 -89 293 -120 400 -68 239 -135 434 -145 423 -11 -12 -58 -263 -69
-373 -42 -402 -39 -743 13 -1392 45 -566 61 -714 86 -812 24 -95 25 -133 5
-209 -40 -155 -148 -260 -304 -297 -117 -28 -278 19 -361 105 l-34 35 -12 -58
c-28 -135 -115 -247 -241 -309 -67 -33 -85 -38 -167 -41 -70 -3 -105 1 -152
16 -128 40 -234 141 -285 270 -21 52 -23 71 -21 223 2 133 -3 204 -23 345 -25
180 -48 408 -60 584 -6 95 -35 336 -81 680 -20 153 -82 466 -90 457 -6 -6 -44
-524 -49 -672 -16 -457 -40 -630 -115 -833 -48 -129 -123 -210 -254 -275 -194
-98 -374 -65 -540 96 -146 142 -163 181 -412 912 -36 104 -67 192 -71 195 -12
11 7 -547 26 -755 49 -532 50 -538 70 -559 11 -12 32 -48 48 -81 25 -54 28
-70 28 -170 0 -101 -2 -115 -29 -169 -41 -85 -191 -237 -271 -277 -248 -121
-529 17 -586 289 -15 72 -7 270 20 542 38 373 60 652 71 895 6 132 15 296 20
365 6 69 17 265 25 435 8 171 18 321 21 335 3 14 9 122 13 240 7 203 9 218 34
273 53 117 163 202 295 227 157 31 286 -8 409 -124 117 -110 152 -199 243
-621 70 -326 152 -616 213 -762 29 -67 55 -123 58 -123 7 0 13 31 118 565 39
198 78 405 86 460 38 249 109 510 176 648 126 261 358 343 595 211 89 -49 147
-111 189 -199 108 -228 163 -519 215 -1145 6 -69 24 -219 40 -335 16 -115 41
-300 55 -410 48 -369 116 -631 225 -870 l27 -60 6 55 c15 128 29 280 47 515
37 472 50 650 60 860 13 246 40 531 75 770 13 94 29 215 35 270 19 171 67 432
114 625 71 290 93 343 187 438 106 108 243 146 380 106z m-9941 -1050 c215
-31 407 -100 591 -212 216 -132 814 -568 1002 -731 204 -176 316 -334 380
-537 165 -523 -8 -1274 -383 -1668 -221 -231 -545 -395 -1005 -506 -71 -17
-204 -56 -295 -87 -193 -65 -255 -70 -380 -33 -99 29 -124 43 -188 104 -87 82
-143 223 -129 327 5 37 1 47 -38 100 -92 126 -110 265 -74 579 12 98 8 155
-25 455 -9 72 -20 207 -26 300 -13 199 -43 466 -105 909 -25 175 -45 332 -45
349 0 17 -12 65 -26 106 -23 65 -26 88 -22 166 10 218 151 353 413 396 63 10
218 2 355 -17z m2980 -44 c171 -32 300 -162 331 -333 23 -123 -17 -250 -107
-347 l-45 -48 -19 -228 c-48 -580 -50 -783 -11 -1009 30 -171 62 -280 130
-448 118 -289 207 -457 284 -540 l44 -48 36 21 c185 109 521 710 647 1154 l34
118 -19 368 c-26 526 -17 674 51 839 35 87 75 143 137 193 79 63 149 91 238
96 224 13 391 -147 406 -388 4 -77 4 -81 -66 -314 -24 -80 -37 -220 -54 -596
-25 -511 17 -839 128 -1025 51 -84 82 -113 137 -130 118 -35 202 -105 255
-214 24 -50 28 -67 28 -156 0 -90 -3 -106 -30 -160 -55 -114 -159 -192 -291
-216 -32 -6 -108 -9 -169 -6 -150 6 -249 43 -340 128 -68 64 -142 165 -203
278 l-39 72 -67 -136 c-244 -504 -447 -679 -786 -678 -97 0 -126 4 -187 25
-199 70 -317 197 -455 486 -91 191 -163 370 -248 617 -38 110 -89 259 -114
330 -97 278 -138 494 -161 840 -8 127 -22 316 -31 420 -22 255 -15 527 16 635
41 143 104 236 214 314 114 81 213 107 326 86z m15447 -4142 c57 -21 143 -92
178 -147 48 -78 57 -128 50 -288 -6 -138 -3 -181 49 -643 73 -648 162 -1155
306 -1735 123 -496 135 -564 135 -760 0 -207 -17 -293 -78 -408 -104 -198
-269 -285 -484 -258 -209 27 -356 142 -719 562 -60 69 -235 267 -389 439 -476
533 -547 622 -774 963 -131 198 -323 481 -334 492 -6 6 -7 -182 -4 -520 6
-582 31 -1122 73 -1565 37 -401 37 -403 20 -559 -13 -117 -21 -154 -45 -205
-40 -81 -83 -131 -153 -176 -273 -177 -639 3 -656 323 -5 91 14 242 53 412 34
155 54 314 70 580 38 619 44 854 46 1770 2 852 1 924 -16 979 -28 93 -18 222
22 309 81 172 274 276 458 247 136 -22 237 -92 321 -222 57 -88 71 -123 90
-226 57 -313 365 -1024 593 -1370 259 -394 457 -618 941 -1069 l145 -135 3 59
c5 86 -15 319 -48 568 -16 121 -47 380 -69 575 -68 597 -184 1263 -263 1510
-39 122 -37 225 6 313 86 176 286 254 473 185z m-5114 -1141 c87 -43 146 -103
184 -185 l25 -53 61 8 c117 14 307 8 377 -11 98 -27 255 -107 346 -175 310
-231 572 -711 654 -1196 51 -299 62 -754 25 -1030 -51 -388 -186 -681 -422
-918 -380 -381 -983 -440 -1575 -153 -254 123 -448 306 -561 532 -79 158 -119
340 -139 632 -19 272 9 908 52 1212 32 231 128 652 197 865 53 167 156 331
251 400 121 88 211 116 358 112 83 -3 99 -6 167 -40z m-1341 9 c190 -38 303
-109 402 -254 45 -68 66 -135 73 -238 13 -189 -47 -331 -175 -412 -148 -94
-333 -77 -461 43 -47 44 -111 149 -111 182 0 7 -12 14 -30 15 -16 0 -35 1 -41
2 -7 1 -17 -17 -24 -39 -16 -55 -41 -100 -85 -156 -34 -43 -39 -58 -54 -156
-36 -225 -52 -491 -72 -1138 -10 -324 22 -762 68 -934 l23 -85 57 -17 c77 -23
136 -58 187 -114 83 -90 116 -203 100 -347 -11 -96 -33 -156 -86 -234 -119
-174 -283 -242 -486 -200 -214 44 -308 144 -396 420 -74 231 -85 370 -78 966
5 427 1 594 -34 1445 -6 160 -9 332 -5 383 3 50 2 92 -3 92 -43 0 -433 -143
-636 -233 -177 -79 -326 -103 -465 -77 -209 40 -351 220 -338 429 7 108 38
179 108 255 71 76 143 113 254 132 45 8 108 21 141 29 33 8 143 28 245 45 102
17 244 42 315 55 188 35 387 62 575 80 91 8 215 22 275 31 316 44 621 56 757
30z m-6659 -324 c123 -61 204 -167 229 -300 17 -92 -4 -356 -63 -787 -66 -481
-108 -1121 -88 -1340 30 -330 92 -488 258 -658 86 -89 138 -130 212 -168 54
-27 112 -81 147 -137 149 -233 12 -540 -262 -591 -61 -11 -208 -1 -291 20 -77
20 -153 70 -228 148 -162 171 -244 308 -318 533 l-43 128 -39 -73 c-125 -231
-338 -439 -533 -521 -118 -49 -203 -68 -335 -73 -96 -4 -142 -2 -198 11 -187
43 -372 188 -506 400 -105 165 -160 361 -190 671 -8 88 -17 171 -20 185 -30
162 -67 1707 -44 1835 31 174 165 306 337 334 205 33 465 -129 537 -334 25
-72 23 -194 -4 -266 -20 -51 -33 -73 -100 -159 -22 -28 -54 -196 -98 -510 -25
-183 -27 -218 -28 -565 0 -405 2 -424 64 -594 59 -163 144 -240 255 -232 15 1
60 16 100 35 209 97 399 447 531 980 82 329 98 439 136 918 20 261 20 273 4
484 -21 264 -18 339 19 419 49 108 117 172 233 221 51 22 70 24 159 22 90 -3
107 -7 167 -36z m-3744 -28 c210 -31 357 -72 481 -134 204 -102 359 -279 427
-485 34 -105 43 -287 19 -392 -41 -182 -156 -373 -327 -544 -77 -77 -225 -199
-312 -259 l-49 -32 63 -35 c297 -165 466 -364 577 -683 50 -146 65 -246 59
-400 -6 -148 -31 -248 -89 -365 -99 -197 -268 -363 -481 -475 -268 -141 -461
-180 -890 -180 -114 0 -251 -6 -305 -12 -53 -7 -137 -13 -187 -12 -80 0 -97 4
-157 32 -47 23 -84 51 -125 95 -38 42 -78 73 -118 92 -130 62 -222 196 -232
337 -4 59 2 108 31 252 68 336 70 350 69 711 -2 367 -3 382 -104 905 l-42 215
-81 86 c-96 100 -127 154 -157 269 -20 77 -21 94 -11 181 7 71 18 113 41 163
21 43 34 89 37 129 13 160 93 281 231 349 90 44 209 51 311 18 l68 -22 99 30
c260 79 627 161 780 175 104 10 278 6 374 -9z m6962 -14 c211 -66 318 -287
244 -506 -47 -141 -104 -205 -245 -273 -92 -45 -97 -46 -190 -46 -91 0 -101 2
-170 37 l-74 36 -37 -41 c-60 -67 -73 -140 -176 -1017 -26 -217 -28 -264 -28
-605 0 -317 3 -383 18 -460 32 -161 45 -192 92 -219 107 -63 176 -181 183
-311 4 -99 -9 -145 -74 -256 -64 -108 -132 -177 -214 -217 -184 -89 -365 -54
-524 101 -169 166 -205 347 -153 787 15 118 33 330 42 470 8 140 20 307 25
370 5 63 10 395 10 738 l0 622 -22 -5 c-257 -61 -250 -59 -306 -114 -32 -31
-82 -66 -120 -84 -61 -29 -75 -32 -168 -32 -100 0 -102 0 -195 47 -143 71
-213 151 -251 287 -63 228 53 437 277 500 59 16 433 66 720 96 138 14 277 30
310 35 98 14 268 29 470 40 105 6 228 17 275 24 126 20 208 19 281 -4z m15014
-8959 c525 -81 1003 -279 1330 -553 268 -224 437 -463 535 -757 127 -378 114
-797 -35 -1196 -89 -237 -282 -578 -464 -820 -153 -203 -535 -600 -796 -828
-55 -48 -157 -138 -226 -200 -89 -80 -148 -124 -204 -152 -78 -40 -79 -40
-212 -43 -229 -6 -349 30 -439 132 l-47 52 -45 -48 c-176 -189 -498 -162 -641
53 -57 85 -74 151 -67 252 3 45 9 134 13 197 7 101 12 125 40 180 28 59 33 80
44 220 23 298 0 837 -65 1480 -19 190 -42 444 -51 565 -15 222 -23 300 -49
499 -8 60 -13 121 -10 135 5 23 0 28 -41 45 -71 29 -149 106 -190 189 -75 151
-53 317 58 443 54 61 173 139 236 154 93 22 267 28 726 25 411 -2 475 -5 600
-24z m-2717 -354 c152 -33 304 -141 358 -254 57 -122 54 -240 -12 -371 -47
-92 -96 -147 -181 -206 -162 -110 -352 -97 -483 33 -32 31 -61 64 -66 73 -13
24 -222 43 -384 34 -124 -7 -316 -28 -324 -37 -2 -2 -15 -26 -29 -54 -14 -27
-44 -70 -67 -95 -63 -67 -138 -182 -186 -285 -24 -51 -44 -95 -44 -98 0 -2 17
-8 37 -12 20 -4 54 -16 76 -26 35 -18 48 -19 160 -11 67 5 145 7 173 5 90 -8
292 45 611 161 87 31 144 33 215 6 70 -26 117 -66 153 -131 27 -48 30 -63 30
-139 0 -69 -5 -93 -23 -128 -44 -83 -84 -109 -428 -284 -458 -232 -489 -244
-661 -263 -193 -22 -398 -29 -462 -17 l-54 10 6 -242 c15 -682 167 -1109 447
-1251 113 -57 194 -65 336 -32 79 18 139 64 307 235 155 158 187 177 302 177
67 0 88 -5 130 -27 107 -57 167 -151 167 -267 1 -87 -20 -133 -123 -274 -186
-254 -374 -474 -459 -538 -75 -56 -99 -67 -188 -89 -386 -95 -821 68 -1097
413 -229 286 -348 688 -386 1302 -15 240 -6 786 16 985 19 180 87 593 118 721
l23 96 -44 49 c-138 151 -149 400 -26 567 95 130 276 188 769 248 279 33 371
37 810 34 326 -2 425 -6 483 -18z m-3387 -170 c96 -30 179 -80 239 -143 81
-87 104 -149 105 -280 0 -96 -2 -103 -38 -176 -52 -106 -141 -184 -313 -272
-93 -49 -166 -63 -246 -49 -89 15 -155 49 -215 110 -49 49 -55 53 -100 53
l-48 0 -1 -73 c0 -49 -9 -98 -27 -154 -64 -200 -83 -361 -98 -838 -9 -283 -8
-400 5 -700 9 -198 21 -463 26 -590 10 -240 36 -457 71 -585 18 -67 49 -147
99 -255 94 -201 12 -429 -190 -528 -61 -30 -70 -32 -180 -32 -137 0 -191 16
-278 79 -69 51 -110 109 -154 220 -30 74 -33 90 -32 186 1 119 20 490 34 655
12 138 12 838 0 1005 -46 648 -80 1229 -80 1355 l0 100 -93 0 c-82 0 -99 4
-159 32 -253 119 -312 444 -118 641 64 65 127 95 280 131 216 51 498 80 1010
101 140 6 256 13 259 16 10 10 202 3 242 -9z m-3796 -792 c66 -8 176 -28 245
-44 69 -16 155 -34 192 -39 88 -13 150 -44 217 -106 208 -196 153 -536 -106
-659 -63 -30 -75 -32 -173 -32 -93 0 -112 3 -167 28 -91 40 -175 57 -284 57
-160 0 -266 -47 -310 -136 -28 -58 -38 -200 -20 -283 26 -123 138 -312 263
-447 75 -80 255 -238 621 -543 278 -231 399 -374 474 -556 90 -223 58 -456
-89 -635 -171 -209 -503 -320 -958 -320 -411 0 -613 47 -764 176 -61 51 -81
77 -110 136 -45 92 -73 219 -82 373 -8 138 6 206 58 287 91 144 291 204 443
135 32 -15 74 -39 92 -53 71 -54 133 -184 133 -279 l0 -44 56 -7 c69 -8 239 2
354 22 91 16 160 34 160 42 0 9 -52 75 -100 126 -25 27 -189 165 -366 307
-391 315 -514 434 -657 636 -93 132 -195 337 -231 463 -97 344 -38 738 146
988 146 197 413 360 668 406 101 18 154 19 295 1z m-5542 -33 c82 -41 149
-107 189 -190 31 -62 33 -73 33 -172 0 -95 -3 -111 -28 -162 -60 -122 -168
-205 -302 -229 -48 -9 -76 -8 -152 7 -71 13 -120 16 -220 11 -280 -13 -392
-73 -689 -371 -377 -378 -579 -701 -662 -1061 -72 -308 -47 -696 60 -953 72
-174 256 -390 429 -505 154 -102 344 -180 517 -213 125 -23 334 -16 415 16 73
27 122 70 138 118 22 65 15 187 -15 277 -64 189 -240 472 -378 608 l-88 87
-158 0 c-213 0 -450 39 -560 91 -74 36 -148 113 -189 197 -37 73 -38 80 -38
181 0 98 2 111 32 174 62 130 180 223 318 248 59 11 147 5 193 -12 54 -21 424
-111 532 -130 146 -26 409 -35 597 -20 170 13 264 40 373 106 90 55 134 68
220 68 57 -1 95 -9 164 -38 19 -8 19 -3 12 136 -14 306 -37 651 -52 806 -22
221 -11 322 45 439 87 182 229 272 411 262 277 -16 451 -298 345 -562 -30 -76
-39 -147 -60 -486 -46 -780 -54 -1055 -35 -1325 23 -329 57 -509 121 -639 52
-105 104 -146 185 -146 45 0 48 2 127 86 45 47 104 118 130 157 106 157 215
421 283 684 47 186 70 319 104 618 17 143 45 366 64 495 l34 235 -14 250 c-22
363 -21 418 6 488 63 164 221 267 393 255 153 -11 266 -87 334 -226 37 -75 38
-78 37 -186 -1 -61 -9 -228 -18 -371 -29 -474 -41 -977 -27 -1154 23 -285 84
-606 148 -785 75 -208 209 -413 313 -478 23 -14 27 -13 75 22 27 20 69 44 92
53 211 82 442 -52 484 -281 14 -76 -2 -152 -56 -267 -77 -164 -178 -268 -325
-339 -83 -40 -88 -41 -190 -41 -99 0 -109 2 -180 35 -98 46 -205 126 -313 236
-199 202 -305 389 -432 759 -27 77 -51 144 -55 148 -4 4 -12 -18 -20 -50 -19
-88 -95 -319 -141 -429 -91 -218 -162 -335 -270 -443 -140 -140 -265 -214
-427 -252 -321 -77 -706 131 -879 476 -40 79 -88 220 -108 318 -40 201 -95
655 -95 794 0 68 -4 72 -51 47 -82 -42 -248 -79 -519 -115 -91 -12 -172 -25
-181 -28 -14 -5 -4 -25 53 -111 255 -385 362 -700 329 -963 -23 -178 -97 -338
-214 -464 -135 -144 -282 -222 -522 -275 -98 -21 -505 -18 -630 6 -189 35
-433 120 -585 203 -496 271 -803 670 -905 1177 -90 450 -24 1014 172 1450 58
130 95 196 217 391 132 211 208 319 331 473 288 359 570 587 840 680 158 54
409 111 498 113 23 0 67 7 97 14 31 8 93 12 143 10 74 -2 97 -7 150 -33z
m-3858 -384 c86 -13 160 -38 234 -79 31 -17 86 -47 123 -66 82 -42 150 -113
189 -197 112 -239 -38 -518 -305 -567 -141 -26 -303 41 -391 161 -44 60 -82
75 -173 67 -83 -6 -229 -77 -352 -170 -209 -158 -437 -439 -478 -589 -9 -33
-7 -39 17 -61 14 -13 55 -44 91 -68 36 -23 146 -102 245 -174 207 -150 378
-272 517 -368 227 -157 531 -444 673 -635 82 -109 169 -282 195 -387 24 -97
26 -243 5 -334 -61 -259 -284 -490 -645 -671 -464 -233 -867 -273 -1198 -119
-265 123 -385 295 -399 574 -10 211 71 521 163 624 67 74 138 106 239 106 99
0 172 -30 239 -100 84 -86 106 -204 66 -360 -11 -43 -20 -97 -20 -121 0 -35 5
-47 35 -72 42 -37 84 -47 190 -46 191 3 440 119 621 289 64 60 65 62 58 101
-34 190 -208 393 -519 607 -114 78 -286 174 -610 342 -224 116 -275 147 -373
228 -262 216 -353 500 -255 787 60 174 160 328 397 609 302 359 673 616 981
681 127 27 303 30 440 8z m-2500 -96 c126 -60 213 -174 234 -307 7 -47 5 -88
-12 -190 -18 -115 -21 -174 -21 -500 -1 -421 10 -616 60 -1020 18 -154 43
-374 54 -490 39 -404 99 -843 137 -1000 33 -139 35 -155 26 -222 -21 -148
-108 -270 -239 -334 -56 -28 -80 -34 -154 -37 -135 -7 -227 26 -319 112 -126
119 -161 273 -106 471 13 50 31 135 39 190 21 137 39 517 32 645 -23 386 -57
704 -106 1010 -22 135 -60 387 -84 560 -25 173 -61 411 -81 529 -32 188 -35
222 -26 274 29 163 141 288 301 334 74 21 188 10 265 -25z m-2554 -622 c196
-15 499 -57 616 -85 470 -113 875 -443 1037 -847 71 -179 102 -365 93 -573
-14 -331 -113 -591 -365 -960 -212 -310 -495 -595 -777 -782 -266 -177 -560
-304 -815 -353 -71 -14 -248 -14 -315 0 -51 11 -52 10 -112 -30 -85 -56 -159
-80 -253 -80 -203 0 -369 136 -410 335 -14 68 -9 141 21 283 27 131 34 351 20
647 -10 207 -18 281 -61 540 -84 502 -125 700 -220 1060 -15 61 -32 130 -35
154 -4 24 -21 73 -39 110 -29 61 -31 74 -31 171 0 94 3 111 28 161 34 71 96
142 151 174 89 52 115 56 386 62 140 3 332 8 425 12 260 12 507 12 656 1z"/>
        <path d="M15085 34983 c-5 -54 -5 -289 -1 -523 9 -553 32 -786 101 -1040 19
-69 41 -159 50 -200 9 -41 27 -104 40 -140 14 -36 29 -83 34 -105 7 -27 27
-56 59 -88 l49 -49 104 25 c150 37 342 101 434 147 223 111 377 297 435 528
49 195 49 475 1 614 -55 159 -240 359 -491 530 -232 158 -425 277 -518 320
-92 42 -210 78 -258 78 l-32 0 -7 -97z"/>
        <path d="M28184 29659 c-50 -99 -134 -330 -169 -462 -88 -336 -125 -690 -106
-998 33 -508 107 -667 376 -801 167 -84 310 -120 475 -121 179 0 267 39 411
182 73 74 93 101 137 191 95 194 141 421 149 735 6 230 -6 353 -52 528 -73
279 -239 508 -447 613 -39 20 -62 24 -133 24 -47 0 -118 -7 -157 -16 -183 -42
-331 6 -429 139 l-28 38 -27 -52z"/>
        <path d="M16309 29570 c-125 -14 -256 -49 -404 -107 -178 -70 -355 -161 -355
-182 0 -9 10 -41 21 -71 25 -65 29 -190 8 -258 -12 -37 -12 -77 0 -255 7 -117
15 -214 17 -216 7 -8 153 29 279 70 154 51 434 190 550 273 263 190 413 363
431 497 23 167 -235 285 -547 249z"/>
        <path d="M16187 27734 c-92 -14 -411 -77 -484 -96 -42 -10 -43 -11 -38 -47 3
-20 12 -103 20 -186 24 -230 52 -382 83 -442 l26 -53 206 0 c413 0 618 48 744
175 95 94 116 181 81 320 -35 136 -104 224 -224 284 -118 60 -236 73 -414 45z"/>
        <path d="M38145 20529 c-93 -11 -175 -22 -182 -24 -8 -3 -6 -21 8 -65 23 -73
24 -142 5 -270 -54 -359 -66 -946 -31 -1465 8 -115 19 -338 25 -495 18 -505
48 -899 72 -943 8 -17 14 -14 54 23 62 57 138 90 231 100 231 25 444 142 773
426 222 191 352 336 499 554 158 236 273 472 329 678 24 89 26 113 26 292 1
170 -2 205 -21 275 -84 305 -269 527 -593 710 -327 185 -748 257 -1195 204z"/>
        <path d="M14185 18123 c-264 -16 -635 -79 -635 -108 0 -32 -43 -124 -81 -174
l-41 -54 7 -136 c3 -75 19 -275 35 -446 16 -170 34 -380 40 -465 10 -127 43
-367 65 -467 4 -15 19 -26 54 -38 156 -51 257 -191 266 -364 2 -41 8 -78 13
-83 13 -13 149 8 246 39 262 82 512 239 726 453 238 239 443 557 502 780 30
117 31 337 0 453 -89 331 -407 567 -818 607 -92 9 -263 10 -379 3z"/>
    </g>
</svg>
