<?xml version="1.0" standalone="no"?>
<!DOCTYPE svg PUBLIC "-//W3C//DTD SVG 20010904//EN"
 "http://www.w3.org/TR/2001/REC-SVG-20010904/DTD/svg10.dtd">
<svg version="1.0" xmlns="http://www.w3.org/2000/svg"
 width="5200.000000pt" height="5200.000000pt" viewBox="0 0 5200.000000 5200.000000"
 preserveAspectRatio="xMidYMid meet">

<g transform="translate(0.000000,5200.000000) scale(0.100000,-0.100000)"
fill="#000000" stroke="none">
<path d="M24920 48034 c-891 -21 -1682 -65 -2415 -135 -3496 -332 -6416 -1242
-8805 -2742 -1432 -899 -2681 -2031 -3716 -3363 -1694 -2182 -2851 -4957
-3458 -8294 -342 -1877 -506 -3862 -506 -6115 0 -3618 435 -6684 1329 -9365
979 -2935 2506 -5302 4575 -7094 1162 -1006 2488 -1827 4006 -2478 2657 -1141
5900 -1718 9660 -1718 4967 0 8990 1000 12067 2997 634 412 1214 856 1803
1381 224 200 850 825 1052 1052 379 424 713 841 1024 1275 1608 2249 2680
5061 3218 8440 366 2294 489 4970 351 7620 -287 5493 -1740 9784 -4349 12835
-423 494 -953 1032 -1431 1450 -1887 1653 -4209 2818 -6995 3510 -1688 419
-3460 652 -5565 730 -267 10 -1585 20 -1845 14z m5142 -10622 c79 -38 149
-110 186 -190 25 -52 27 -67 26 -177 0 -97 -5 -131 -23 -180 -68 -187 -180
-723 -261 -1253 -36 -237 -80 -961 -80 -1322 0 -446 27 -716 83 -829 31 -64
32 -69 35 -224 3 -138 1 -168 -17 -226 -84 -278 -425 -391 -670 -223 -150 103
-218 309 -162 493 38 126 73 359 96 649 8 107 24 294 35 415 10 121 24 301 30
400 6 99 20 288 31 420 10 132 19 243 19 248 0 4 -26 -14 -57 -40 -170 -137
-379 -229 -582 -254 -174 -22 -393 16 -548 94 -139 71 -360 241 -469 360 -31
34 -108 131 -171 216 -63 84 -146 186 -185 225 -133 136 -180 243 -182 416 -1
109 1 118 30 181 54 113 137 187 253 224 79 26 208 17 281 -18 109 -52 182
-134 220 -248 12 -35 48 -104 79 -154 32 -49 80 -128 106 -175 115 -201 241
-353 335 -400 96 -49 259 -32 381 38 89 51 268 233 348 351 77 117 109 179
178 350 59 148 60 150 72 366 8 130 13 160 39 226 38 98 79 158 142 204 79 58
139 76 246 72 79 -2 100 -7 156 -35z m-5081 -538 c93 -27 165 -73 237 -148 70
-75 144 -191 180 -286 36 -91 87 -294 126 -495 64 -331 222 -1013 232 -1002 2
2 11 122 19 268 16 267 23 348 50 564 8 66 22 184 30 263 30 271 81 409 188
509 135 126 263 149 437 81 107 -42 161 -89 224 -198 44 -74 82 -194 152 -474
124 -497 188 -685 325 -956 116 -231 204 -392 276 -507 36 -58 50 -73 76 -79
103 -22 217 -117 265 -222 48 -105 42 -331 -14 -448 -45 -95 -143 -187 -236
-220 -177 -64 -344 -21 -486 123 -106 109 -153 213 -398 878 -80 215 -170 448
-202 520 l-57 130 -3 -50 c-2 -28 1 -106 7 -175 35 -419 39 -864 8 -975 -39
-137 -128 -266 -225 -322 -71 -42 -188 -73 -273 -73 -131 0 -222 43 -330 157
-66 69 -86 106 -164 303 -81 205 -119 319 -171 520 -25 96 -74 267 -109 380
-36 113 -89 293 -120 400 -68 239 -135 434 -145 423 -11 -12 -58 -263 -69
-373 -42 -402 -39 -743 13 -1392 45 -566 61 -714 86 -812 24 -95 25 -133 5
-209 -40 -155 -148 -260 -304 -297 -117 -28 -278 19 -361 105 l-34 35 -12 -58
c-28 -135 -115 -247 -241 -309 -67 -33 -85 -38 -167 -41 -70 -3 -105 1 -152
16 -128 40 -234 141 -285 270 -21 52 -23 71 -21 223 2 133 -3 204 -23 345 -25
180 -48 408 -60 584 -6 95 -35 336 -81 680 -20 153 -82 466 -90 457 -6 -6 -44
-524 -49 -672 -16 -457 -40 -630 -115 -833 -48 -129 -123 -210 -254 -275 -194
-98 -374 -65 -540 96 -146 142 -163 181 -412 912 -36 104 -67 192 -71 195 -12
11 7 -547 26 -755 49 -532 50 -538 70 -559 11 -12 32 -48 48 -81 25 -54 28
-70 28 -170 0 -101 -2 -115 -29 -169 -41 -85 -191 -237 -271 -277 -248 -121
-529 17 -586 289 -15 72 -7 270 20 542 38 373 60 652 71 895 6 132 15 296 20
365 6 69 17 265 25 435 8 171 18 321 21 335 3 14 9 122 13 240 7 203 9 218 34
273 53 117 163 202 295 227 157 31 286 -8 409 -124 117 -110 152 -199 243
-621 70 -326 152 -616 213 -762 29 -67 55 -123 58 -123 7 0 13 31 118 565 39
198 78 405 86 460 38 249 109 510 176 648 126 261 358 343 595 211 89 -49 147
-111 189 -199 108 -228 163 -519 215 -1145 6 -69 24 -219 40 -335 16 -115 41
-300 55 -410 48 -369 116 -631 225 -870 l27 -60 6 55 c15 128 29 280 47 515
37 472 50 650 60 860 13 246 40 531 75 770 13 94 29 215 35 270 19 171 67 432
114 625 71 290 93 343 187 438 106 108 243 146 380 106z m-9941 -1050 c215
-31 407 -100 591 -212 216 -132 814 -568 1002 -731 204 -176 316 -334 380
-537 165 -523 -8 -1274 -383 -1668 -221 -231 -545 -395 -1005 -506 -71 -17
-204 -56 -295 -87 -193 -65 -255 -70 -380 -33 -99 29 -124 43 -188 104 -87 82
-143 223 -129 327 5 37 1 47 -38 100 -92 126 -110 265 -74 579 12 98 8 155
-25 455 -9 72 -20 207 -26 300 -13 199 -43 466 -105 909 -25 175 -45 332 -45
349 0 17 -12 65 -26 106 -23 65 -26 88 -22 166 10 218 151 353 413 396 63 10
218 2 355 -17z m2980 -44 c171 -32 300 -162 331 -333 23 -123 -17 -250 -107
-347 l-45 -48 -19 -228 c-48 -580 -50 -783 -11 -1009 30 -171 62 -280 130
-448 118 -289 207 -457 284 -540 l44 -48 36 21 c185 109 521 710 647 1154 l34
118 -19 368 c-26 526 -17 674 51 839 35 87 75 143 137 193 79 63 149 91 238
96 224 13 391 -147 406 -388 4 -77 4 -81 -66 -314 -24 -80 -37 -220 -54 -596
-25 -511 17 -839 128 -1025 51 -84 82 -113 137 -130 118 -35 202 -105 255
-214 24 -50 28 -67 28 -156 0 -90 -3 -106 -30 -160 -55 -114 -159 -192 -291
-216 -32 -6 -108 -9 -169 -6 -150 6 -249 43 -340 128 -68 64 -142 165 -203
278 l-39 72 -67 -136 c-244 -504 -447 -679 -786 -678 -97 0 -126 4 -187 25
-199 70 -317 197 -455 486 -91 191 -163 370 -248 617 -38 110 -89 259 -114
330 -97 278 -138 494 -161 840 -8 127 -22 316 -31 420 -22 255 -15 527 16 635
41 143 104 236 214 314 114 81 213 107 326 86z m15447 -4142 c57 -21 143 -92
178 -147 48 -78 57 -128 50 -288 -6 -138 -3 -181 49 -643 73 -648 162 -1155
306 -1735 123 -496 135 -564 135 -760 0 -207 -17 -293 -78 -408 -104 -198
-269 -285 -484 -258 -209 27 -356 142 -719 562 -60 69 -235 267 -389 439 -476
533 -547 622 -774 963 -131 198 -323 481 -334 492 -6 6 -7 -182 -4 -520 6
-582 31 -1122 73 -1565 37 -401 37 -403 20 -559 -13 -117 -21 -154 -45 -205
-40 -81 -83 -131 -153 -176 -273 -177 -639 3 -656 323 -5 91 14 242 53 412 34
155 54 314 70 580 38 619 44 854 46 1770 2 852 1 924 -16 979 -28 93 -18 222
22 309 81 172 274 276 458 247 136 -22 237 -92 321 -222 57 -88 71 -123 90
-226 57 -313 365 -1024 593 -1370 259 -394 457 -618 941 -1069 l145 -135 3 59
c5 86 -15 319 -48 568 -16 121 -47 380 -69 575 -68 597 -184 1263 -263 1510
-39 122 -37 225 6 313 86 176 286 254 473 185z m-5114 -1141 c87 -43 146 -103
184 -185 l25 -53 61 8 c117 14 307 8 377 -11 98 -27 255 -107 346 -175 310
-231 572 -711 654 -1196 51 -299 62 -754 25 -1030 -51 -388 -186 -681 -422
-918 -380 -381 -983 -440 -1575 -153 -254 123 -448 306 -561 532 -79 158 -119
340 -139 632 -19 272 9 908 52 1212 32 231 128 652 197 865 53 167 156 331
251 400 121 88 211 116 358 112 83 -3 99 -6 167 -40z m-1341 9 c190 -38 303
-109 402 -254 45 -68 66 -135 73 -238 13 -189 -47 -331 -175 -412 -148 -94
-333 -77 -461 43 -47 44 -111 149 -111 182 0 7 -12 14 -30 15 -16 0 -35 1 -41
2 -7 1 -17 -17 -24 -39 -16 -55 -41 -100 -85 -156 -34 -43 -39 -58 -54 -156
-36 -225 -52 -491 -72 -1138 -10 -324 22 -762 68 -934 l23 -85 57 -17 c77 -23
136 -58 187 -114 83 -90 116 -203 100 -347 -11 -96 -33 -156 -86 -234 -119
-174 -283 -242 -486 -200 -214 44 -308 144 -396 420 -74 231 -85 370 -78 966
5 427 1 594 -34 1445 -6 160 -9 332 -5 383 3 50 2 92 -3 92 -43 0 -433 -143
-636 -233 -177 -79 -326 -103 -465 -77 -209 40 -351 220 -338 429 7 108 38
179 108 255 71 76 143 113 254 132 45 8 108 21 141 29 33 8 143 28 245 45 102
17 244 42 315 55 188 35 387 62 575 80 91 8 215 22 275 31 316 44 621 56 757
30z m-6659 -324 c123 -61 204 -167 229 -300 17 -92 -4 -356 -63 -787 -66 -481
-108 -1121 -88 -1340 30 -330 92 -488 258 -658 86 -89 138 -130 212 -168 54
-27 112 -81 147 -137 149 -233 12 -540 -262 -591 -61 -11 -208 -1 -291 20 -77
20 -153 70 -228 148 -162 171 -244 308 -318 533 l-43 128 -39 -73 c-125 -231
-338 -439 -533 -521 -118 -49 -203 -68 -335 -73 -96 -4 -142 -2 -198 11 -187
43 -372 188 -506 400 -105 165 -160 361 -190 671 -8 88 -17 171 -20 185 -30
162 -67 1707 -44 1835 31 174 165 306 337 334 205 33 465 -129 537 -334 25
-72 23 -194 -4 -266 -20 -51 -33 -73 -100 -159 -22 -28 -54 -196 -98 -510 -25
-183 -27 -218 -28 -565 0 -405 2 -424 64 -594 59 -163 144 -240 255 -232 15 1
60 16 100 35 209 97 399 447 531 980 82 329 98 439 136 918 20 261 20 273 4
484 -21 264 -18 339 19 419 49 108 117 172 233 221 51 22 70 24 159 22 90 -3
107 -7 167 -36z m-3744 -28 c210 -31 357 -72 481 -134 204 -102 359 -279 427
-485 34 -105 43 -287 19 -392 -41 -182 -156 -373 -327 -544 -77 -77 -225 -199
-312 -259 l-49 -32 63 -35 c297 -165 466 -364 577 -683 50 -146 65 -246 59
-400 -6 -148 -31 -248 -89 -365 -99 -197 -268 -363 -481 -475 -268 -141 -461
-180 -890 -180 -114 0 -251 -6 -305 -12 -53 -7 -137 -13 -187 -12 -80 0 -97 4
-157 32 -47 23 -84 51 -125 95 -38 42 -78 73 -118 92 -130 62 -222 196 -232
337 -4 59 2 108 31 252 68 336 70 350 69 711 -2 367 -3 382 -104 905 l-42 215
-81 86 c-96 100 -127 154 -157 269 -20 77 -21 94 -11 181 7 71 18 113 41 163
21 43 34 89 37 129 13 160 93 281 231 349 90 44 209 51 311 18 l68 -22 99 30
c260 79 627 161 780 175 104 10 278 6 374 -9z m6962 -14 c211 -66 318 -287
244 -506 -47 -141 -104 -205 -245 -273 -92 -45 -97 -46 -190 -46 -91 0 -101 2
-170 37 l-74 36 -37 -41 c-60 -67 -73 -140 -176 -1017 -26 -217 -28 -264 -28
-605 0 -317 3 -383 18 -460 32 -161 45 -192 92 -219 107 -63 176 -181 183
-311 4 -99 -9 -145 -74 -256 -64 -108 -132 -177 -214 -217 -184 -89 -365 -54
-524 101 -169 166 -205 347 -153 787 15 118 33 330 42 470 8 140 20 307 25
370 5 63 10 395 10 738 l0 622 -22 -5 c-257 -61 -250 -59 -306 -114 -32 -31
-82 -66 -120 -84 -61 -29 -75 -32 -168 -32 -100 0 -102 0 -195 47 -143 71
-213 151 -251 287 -63 228 53 437 277 500 59 16 433 66 720 96 138 14 277 30
310 35 98 14 268 29 470 40 105 6 228 17 275 24 126 20 208 19 281 -4z m10411
-10181 c147 -31 265 -136 308 -276 45 -147 12 -290 -94 -401 l-41 -43 -2 -317
c-1 -174 -7 -471 -14 -659 -19 -537 -3 -1030 41 -1278 57 -318 127 -511 212
-591 71 -67 257 -70 661 -10 130 19 355 47 500 61 144 14 332 35 417 45 494
63 867 87 1074 71 260 -21 435 -72 517 -152 97 -94 129 -219 90 -349 -19 -62
-31 -81 -84 -135 -83 -84 -148 -109 -262 -102 -65 4 -94 11 -157 41 -158 75
-275 87 -583 62 -586 -48 -969 -119 -1489 -277 -304 -92 -549 -137 -694 -126
-303 22 -561 197 -660 447 -74 186 -125 487 -157 930 -8 113 -21 286 -30 384
-8 99 -20 324 -25 500 -14 453 -29 648 -110 1379 -11 97 -20 210 -20 250 0 86
30 211 68 280 40 74 152 174 241 215 126 59 197 71 293 51z m-2251 -203 c106
-24 192 -94 239 -191 58 -119 68 -438 25 -805 -75 -656 -90 -844 -89 -1130 1
-502 65 -950 199 -1415 56 -192 138 -397 181 -454 2 -2 22 13 45 34 23 20 67
49 98 64 48 22 69 26 146 26 77 -1 98 -5 145 -28 100 -50 167 -129 195 -231
15 -56 17 -92 12 -243 -6 -202 -19 -262 -74 -362 -76 -135 -175 -208 -317
-232 -295 -50 -567 143 -756 536 -116 240 -231 575 -291 849 -13 59 -24 104
-26 100 -1 -5 -7 -81 -13 -169 -32 -486 -131 -917 -260 -1135 -79 -135 -201
-256 -320 -319 -70 -37 -195 -71 -267 -71 -59 0 -176 23 -227 44 -117 49 -285
205 -390 364 -113 169 -174 321 -225 557 -42 192 -103 744 -136 1235 -42 619
-159 1591 -227 1890 -37 162 -41 304 -12 398 37 115 171 249 289 287 45 15 89
20 175 20 110 0 118 -1 182 -33 84 -41 167 -128 199 -209 19 -46 23 -77 24
-153 0 -83 -4 -103 -28 -154 -15 -33 -44 -79 -63 -103 l-36 -44 6 -167 c4 -92
13 -315 21 -497 8 -181 22 -503 30 -714 19 -487 52 -877 106 -1251 45 -315
124 -522 232 -616 l41 -35 19 23 c234 295 331 725 352 1563 10 420 32 741 80
1180 43 394 91 659 160 890 18 61 54 190 79 289 26 98 56 196 66 217 45 87
146 168 240 193 70 19 101 19 171 2z m-3501 -446 c129 -24 228 -100 283 -218
29 -60 32 -77 32 -158 0 -84 -2 -95 -38 -166 -60 -123 -139 -179 -305 -217
-118 -27 -206 -27 -274 -1 -46 17 -62 18 -147 10 -53 -5 -181 -16 -286 -25
-169 -13 -329 -31 -465 -53 l-45 -7 -9 -170 c-12 -215 -1 -343 60 -710 26
-154 48 -281 48 -282 2 -3 230 37 321 57 167 36 449 109 645 165 175 51 202
56 260 51 157 -14 277 -122 310 -280 22 -105 -11 -214 -90 -300 -54 -59 -92
-76 -295 -135 -94 -27 -252 -79 -353 -115 -205 -74 -362 -123 -531 -166 -62
-16 -115 -31 -118 -34 -8 -8 168 -852 237 -1131 98 -398 99 -401 160 -454 28
-23 63 -62 77 -85 15 -22 41 -64 59 -92 48 -75 74 -161 74 -248 0 -338 -350
-549 -654 -394 -52 27 -159 129 -190 182 -45 77 -55 137 -55 321 0 163 -3 189
-70 610 -57 360 -162 942 -212 1174 l-10 47 -57 10 c-128 25 -238 108 -294
222 -31 63 -33 72 -33 177 0 104 2 114 32 176 30 61 92 130 151 169 l22 15
-60 245 c-103 416 -142 639 -156 890 l-6 116 -35 24 c-42 29 -105 109 -127
163 -31 77 -39 156 -22 236 39 186 175 302 376 321 50 5 114 7 143 4 514 -41
1032 -27 1332 36 142 30 234 35 315 20z m-4741 -179 c77 -24 149 -77 194 -143
39 -57 77 -169 77 -225 0 -28 3 -33 18 -29 122 37 403 33 547 -7 168 -47 273
-98 450 -218 214 -145 372 -325 488 -555 173 -345 150 -677 -71 -1015 -184
-281 -439 -481 -786 -614 l-99 -38 109 -43 c60 -23 150 -55 199 -70 50 -16
221 -73 380 -127 160 -54 409 -136 555 -182 146 -46 322 -104 391 -129 70 -24
162 -52 205 -61 153 -31 243 -94 300 -211 26 -53 29 -69 29 -154 0 -84 -3
-102 -28 -152 -36 -73 -101 -139 -175 -175 -51 -25 -68 -28 -157 -28 l-100 0
-119 58 c-66 32 -187 96 -268 143 -271 155 -491 243 -913 363 -255 72 -484
126 -494 115 -10 -9 98 -398 199 -717 93 -294 121 -369 178 -480 l67 -132 0
-115 c0 -114 -1 -117 -38 -192 -94 -191 -305 -281 -510 -218 -97 30 -173 91
-240 192 -79 120 -102 170 -137 304 -51 193 -113 409 -213 744 -94 313 -157
540 -217 780 l-32 125 -53 33 c-78 47 -157 153 -201 267 -40 106 -15 321 49
414 l23 34 -18 96 c-28 144 -65 389 -83 541 -35 309 -6 602 80 795 l22 50 -22
35 c-48 78 -57 118 -63 285 -12 341 -10 394 20 457 46 98 150 184 252 209 57
13 144 9 205 -10z m-2025 -310 c88 -43 177 -134 220 -224 45 -96 192 -667 330
-1286 25 -112 48 -206 51 -209 2 -2 71 12 153 32 84 21 165 36 188 34 l39 -3
7 -90 c20 -240 36 -460 33 -464 -2 -2 -66 -22 -142 -45 -130 -40 -138 -44
-135 -67 4 -38 186 -708 237 -874 161 -522 255 -775 311 -837 46 -51 55 -74
99 -249 31 -119 36 -156 32 -217 -8 -145 -110 -286 -254 -355 -64 -30 -75 -32
-178 -32 -103 0 -114 2 -178 32 -93 44 -169 119 -215 212 l-37 75 -1 226 c0
165 -5 251 -17 325 -22 124 -151 687 -263 1145 -114 466 -100 421 -127 411
-13 -5 -84 -21 -157 -36 -149 -29 -403 -90 -436 -104 -19 -8 -22 -28 -44 -247
-27 -263 -33 -665 -16 -964 l9 -155 39 -47 c21 -25 51 -72 66 -105 24 -52 27
-69 27 -163 0 -97 -2 -110 -32 -173 -38 -81 -107 -151 -184 -189 -224 -109
-548 -15 -657 191 -48 88 -76 232 -68 346 3 50 11 167 16 260 12 196 40 387
111 751 27 142 48 263 45 269 -2 6 -27 17 -55 24 -73 18 -164 82 -211 148 -60
84 -75 138 -75 273 0 108 2 119 32 182 70 149 196 222 434 253 l46 6 22 137
c35 214 115 611 165 813 24 101 61 255 81 341 106 463 220 640 435 677 92 16
185 6 254 -28z m-2559 -696 c124 -33 252 -142 296 -253 18 -44 23 -77 24 -147
0 -80 -4 -97 -32 -157 -75 -159 -235 -246 -433 -236 -64 3 -96 10 -130 28 -37
19 -65 24 -162 28 -202 7 -541 -30 -578 -65 -13 -11 -15 -74 -19 -410 -3 -382
-3 -396 15 -390 226 68 509 141 799 206 248 55 369 99 479 174 111 75 221 94
337 57 213 -67 315 -302 220 -506 -70 -149 -171 -200 -572 -289 -191 -42 -258
-61 -549 -157 -366 -120 -539 -197 -625 -277 -27 -26 -65 -56 -82 -66 l-33
-19 0 -176 c0 -281 27 -438 100 -586 55 -112 115 -166 246 -221 153 -64 272
-85 495 -87 l185 -1 39 34 c22 19 64 46 95 60 47 22 69 26 150 26 84 0 103 -3
157 -29 73 -34 153 -113 186 -183 18 -40 22 -66 22 -153 0 -94 -3 -111 -27
-161 -49 -100 -182 -212 -320 -270 -155 -66 -406 -92 -690 -70 -752 57 -1142
401 -1238 1091 -6 43 -13 347 -15 717 -5 754 -15 951 -65 1320 -11 79 -20 147
-20 152 0 5 -44 10 -97 13 -84 3 -108 8 -165 35 -255 120 -311 457 -108 647
90 85 195 119 335 109 64 -4 114 1 245 25 185 35 322 55 485 72 61 6 187 22
280 35 94 14 240 31 325 40 85 8 187 24 225 35 86 23 143 25 220 5z m-4571
-110 c511 -78 523 -79 841 -80 278 0 291 1 320 21 59 41 125 59 220 59 82 0
97 -3 157 -33 139 -68 220 -188 226 -337 9 -199 -73 -351 -229 -429 -91 -46
-143 -51 -377 -36 -324 21 -1334 11 -1358 -13 -2 -2 24 -81 57 -177 55 -160
133 -419 189 -628 l23 -84 46 7 c90 13 408 77 521 105 161 40 354 77 493 95
65 9 146 25 180 38 46 16 84 22 147 22 74 0 93 -4 150 -31 241 -115 295 -420
108 -607 -85 -85 -159 -106 -539 -157 -215 -29 -356 -59 -659 -143 l-265 -74
2 -44 c1 -41 31 -181 148 -684 49 -210 143 -557 176 -650 31 -88 23 -207 -19
-296 -98 -206 -345 -293 -548 -194 -79 39 -188 144 -224 219 -51 102 -56 169
-29 327 30 174 30 360 0 597 -64 510 -112 752 -166 842 -43 71 -65 148 -65
227 0 120 -122 445 -320 853 -71 146 -140 300 -155 342 -31 95 -50 216 -49
324 1 69 5 91 32 147 39 83 105 155 180 195 46 25 63 40 77 73 53 117 246 235
404 248 8 0 145 -19 305 -44z"/>
<path d="M15085 34983 c-5 -54 -5 -289 -1 -523 9 -553 32 -786 101 -1040 19
-69 41 -159 50 -200 9 -41 27 -104 40 -140 14 -36 29 -83 34 -105 7 -27 27
-56 59 -88 l49 -49 104 25 c150 37 342 101 434 147 223 111 377 297 435 528
49 195 49 475 1 614 -55 159 -240 359 -491 530 -232 158 -425 277 -518 320
-92 42 -210 78 -258 78 l-32 0 -7 -97z"/>
<path d="M28184 29659 c-50 -99 -134 -330 -169 -462 -88 -336 -125 -690 -106
-998 33 -508 107 -667 376 -801 167 -84 310 -120 475 -121 179 0 267 39 411
182 73 74 93 101 137 191 95 194 141 421 149 735 6 230 -6 353 -52 528 -73
279 -239 508 -447 613 -39 20 -62 24 -133 24 -47 0 -118 -7 -157 -16 -183 -42
-331 6 -429 139 l-28 38 -27 -52z"/>
<path d="M16309 29570 c-125 -14 -256 -49 -404 -107 -178 -70 -355 -161 -355
-182 0 -9 10 -41 21 -71 25 -65 29 -190 8 -258 -12 -37 -12 -77 0 -255 7 -117
15 -214 17 -216 7 -8 153 29 279 70 154 51 434 190 550 273 263 190 413 363
431 497 23 167 -235 285 -547 249z"/>
<path d="M16187 27734 c-92 -14 -411 -77 -484 -96 -42 -10 -43 -11 -38 -47 3
-20 12 -103 20 -186 24 -230 52 -382 83 -442 l26 -53 206 0 c413 0 618 48 744
175 95 94 116 181 81 320 -35 136 -104 224 -224 284 -118 60 -236 73 -414 45z"/>
<path d="M23871 18135 c-71 -20 -71 -20 -71 -68 0 -150 127 -1125 150 -1150
10 -11 191 48 274 89 102 52 153 89 242 179 150 153 208 264 209 405 0 77 -3
92 -32 150 -79 159 -240 302 -425 378 -53 21 -82 26 -178 29 -80 2 -131 -2
-169 -12z"/>
<path d="M21197 17532 c-44 -213 -97 -505 -97 -539 0 -23 3 -25 33 -19 17 3
82 10 142 16 61 6 129 13 152 16 l41 5 -25 82 c-48 159 -195 602 -202 609 -4
5 -24 -72 -44 -170z"/>
</g>
</svg>
