<?xml version="1.0" standalone="no"?>
<!DOCTYPE svg PUBLIC "-//W3C//DTD SVG 20010904//EN"
        "http://www.w3.org/TR/2001/REC-SVG-20010904/DTD/svg10.dtd">
<svg version="1.0" xmlns="http://www.w3.org/2000/svg"
     width="5200.000000pt" height="5200.000000pt" viewBox="0 0 5200.000000 5200.000000"
     preserveAspectRatio="xMidYMid meet">

    <g transform="translate(0.000000,5200.000000) scale(0.100000,-0.100000)"
       fill="#000000" stroke="none">
        <path d="M24920 48034 c-891 -21 -1682 -65 -2415 -135 -3496 -332 -6416 -1242
-8805 -2742 -1432 -899 -2681 -2031 -3716 -3363 -1694 -2182 -2851 -4957
-3458 -8294 -342 -1877 -506 -3862 -506 -6115 0 -3618 435 -6684 1329 -9365
979 -2935 2506 -5302 4575 -7094 1162 -1006 2488 -1827 4006 -2478 2657 -1141
5900 -1718 9660 -1718 4967 0 8990 1000 12067 2997 634 412 1214 856 1803
1381 224 200 850 825 1052 1052 379 424 713 841 1024 1275 1608 2249 2680
5061 3218 8440 366 2294 489 4970 351 7620 -287 5493 -1740 9784 -4349 12835
-423 494 -953 1032 -1431 1450 -1887 1653 -4209 2818 -6995 3510 -1688 419
-3460 652 -5565 730 -267 10 -1585 20 -1845 14z m5142 -10622 c79 -38 149
-110 186 -190 25 -52 27 -67 26 -177 0 -97 -5 -131 -23 -180 -68 -187 -180
-723 -261 -1253 -36 -237 -80 -961 -80 -1322 0 -446 27 -716 83 -829 31 -64
32 -69 35 -224 3 -138 1 -168 -17 -226 -84 -278 -425 -391 -670 -223 -150 103
-218 309 -162 493 38 126 73 359 96 649 8 107 24 294 35 415 10 121 24 301 30
400 6 99 20 288 31 420 10 132 19 243 19 248 0 4 -26 -14 -57 -40 -170 -137
-379 -229 -582 -254 -174 -22 -393 16 -548 94 -139 71 -360 241 -469 360 -31
34 -108 131 -171 216 -63 84 -146 186 -185 225 -133 136 -180 243 -182 416 -1
109 1 118 30 181 54 113 137 187 253 224 79 26 208 17 281 -18 109 -52 182
-134 220 -248 12 -35 48 -104 79 -154 32 -49 80 -128 106 -175 115 -201 241
-353 335 -400 96 -49 259 -32 381 38 89 51 268 233 348 351 77 117 109 179
178 350 59 148 60 150 72 366 8 130 13 160 39 226 38 98 79 158 142 204 79 58
139 76 246 72 79 -2 100 -7 156 -35z m-5081 -538 c93 -27 165 -73 237 -148 70
-75 144 -191 180 -286 36 -91 87 -294 126 -495 64 -331 222 -1013 232 -1002 2
2 11 122 19 268 16 267 23 348 50 564 8 66 22 184 30 263 30 271 81 409 188
509 135 126 263 149 437 81 107 -42 161 -89 224 -198 44 -74 82 -194 152 -474
124 -497 188 -685 325 -956 116 -231 204 -392 276 -507 36 -58 50 -73 76 -79
103 -22 217 -117 265 -222 48 -105 42 -331 -14 -448 -45 -95 -143 -187 -236
-220 -177 -64 -344 -21 -486 123 -106 109 -153 213 -398 878 -80 215 -170 448
-202 520 l-57 130 -3 -50 c-2 -28 1 -106 7 -175 35 -419 39 -864 8 -975 -39
-137 -128 -266 -225 -322 -71 -42 -188 -73 -273 -73 -131 0 -222 43 -330 157
-66 69 -86 106 -164 303 -81 205 -119 319 -171 520 -25 96 -74 267 -109 380
-36 113 -89 293 -120 400 -68 239 -135 434 -145 423 -11 -12 -58 -263 -69
-373 -42 -402 -39 -743 13 -1392 45 -566 61 -714 86 -812 24 -95 25 -133 5
-209 -40 -155 -148 -260 -304 -297 -117 -28 -278 19 -361 105 l-34 35 -12 -58
c-28 -135 -115 -247 -241 -309 -67 -33 -85 -38 -167 -41 -70 -3 -105 1 -152
16 -128 40 -234 141 -285 270 -21 52 -23 71 -21 223 2 133 -3 204 -23 345 -25
180 -48 408 -60 584 -6 95 -35 336 -81 680 -20 153 -82 466 -90 457 -6 -6 -44
-524 -49 -672 -16 -457 -40 -630 -115 -833 -48 -129 -123 -210 -254 -275 -194
-98 -374 -65 -540 96 -146 142 -163 181 -412 912 -36 104 -67 192 -71 195 -12
11 7 -547 26 -755 49 -532 50 -538 70 -559 11 -12 32 -48 48 -81 25 -54 28
-70 28 -170 0 -101 -2 -115 -29 -169 -41 -85 -191 -237 -271 -277 -248 -121
-529 17 -586 289 -15 72 -7 270 20 542 38 373 60 652 71 895 6 132 15 296 20
365 6 69 17 265 25 435 8 171 18 321 21 335 3 14 9 122 13 240 7 203 9 218 34
273 53 117 163 202 295 227 157 31 286 -8 409 -124 117 -110 152 -199 243
-621 70 -326 152 -616 213 -762 29 -67 55 -123 58 -123 7 0 13 31 118 565 39
198 78 405 86 460 38 249 109 510 176 648 126 261 358 343 595 211 89 -49 147
-111 189 -199 108 -228 163 -519 215 -1145 6 -69 24 -219 40 -335 16 -115 41
-300 55 -410 48 -369 116 -631 225 -870 l27 -60 6 55 c15 128 29 280 47 515
37 472 50 650 60 860 13 246 40 531 75 770 13 94 29 215 35 270 19 171 67 432
114 625 71 290 93 343 187 438 106 108 243 146 380 106z m-9941 -1050 c215
-31 407 -100 591 -212 216 -132 814 -568 1002 -731 204 -176 316 -334 380
-537 165 -523 -8 -1274 -383 -1668 -221 -231 -545 -395 -1005 -506 -71 -17
-204 -56 -295 -87 -193 -65 -255 -70 -380 -33 -99 29 -124 43 -188 104 -87 82
-143 223 -129 327 5 37 1 47 -38 100 -92 126 -110 265 -74 579 12 98 8 155
-25 455 -9 72 -20 207 -26 300 -13 199 -43 466 -105 909 -25 175 -45 332 -45
349 0 17 -12 65 -26 106 -23 65 -26 88 -22 166 10 218 151 353 413 396 63 10
218 2 355 -17z m2980 -44 c171 -32 300 -162 331 -333 23 -123 -17 -250 -107
-347 l-45 -48 -19 -228 c-48 -580 -50 -783 -11 -1009 30 -171 62 -280 130
-448 118 -289 207 -457 284 -540 l44 -48 36 21 c185 109 521 710 647 1154 l34
118 -19 368 c-26 526 -17 674 51 839 35 87 75 143 137 193 79 63 149 91 238
96 224 13 391 -147 406 -388 4 -77 4 -81 -66 -314 -24 -80 -37 -220 -54 -596
-25 -511 17 -839 128 -1025 51 -84 82 -113 137 -130 118 -35 202 -105 255
-214 24 -50 28 -67 28 -156 0 -90 -3 -106 -30 -160 -55 -114 -159 -192 -291
-216 -32 -6 -108 -9 -169 -6 -150 6 -249 43 -340 128 -68 64 -142 165 -203
278 l-39 72 -67 -136 c-244 -504 -447 -679 -786 -678 -97 0 -126 4 -187 25
-199 70 -317 197 -455 486 -91 191 -163 370 -248 617 -38 110 -89 259 -114
330 -97 278 -138 494 -161 840 -8 127 -22 316 -31 420 -22 255 -15 527 16 635
41 143 104 236 214 314 114 81 213 107 326 86z m15447 -4142 c57 -21 143 -92
178 -147 48 -78 57 -128 50 -288 -6 -138 -3 -181 49 -643 73 -648 162 -1155
306 -1735 123 -496 135 -564 135 -760 0 -207 -17 -293 -78 -408 -104 -198
-269 -285 -484 -258 -209 27 -356 142 -719 562 -60 69 -235 267 -389 439 -476
533 -547 622 -774 963 -131 198 -323 481 -334 492 -6 6 -7 -182 -4 -520 6
-582 31 -1122 73 -1565 37 -401 37 -403 20 -559 -13 -117 -21 -154 -45 -205
-40 -81 -83 -131 -153 -176 -273 -177 -639 3 -656 323 -5 91 14 242 53 412 34
155 54 314 70 580 38 619 44 854 46 1770 2 852 1 924 -16 979 -28 93 -18 222
22 309 81 172 274 276 458 247 136 -22 237 -92 321 -222 57 -88 71 -123 90
-226 57 -313 365 -1024 593 -1370 259 -394 457 -618 941 -1069 l145 -135 3 59
c5 86 -15 319 -48 568 -16 121 -47 380 -69 575 -68 597 -184 1263 -263 1510
-39 122 -37 225 6 313 86 176 286 254 473 185z m-5114 -1141 c87 -43 146 -103
184 -185 l25 -53 61 8 c117 14 307 8 377 -11 98 -27 255 -107 346 -175 310
-231 572 -711 654 -1196 51 -299 62 -754 25 -1030 -51 -388 -186 -681 -422
-918 -380 -381 -983 -440 -1575 -153 -254 123 -448 306 -561 532 -79 158 -119
340 -139 632 -19 272 9 908 52 1212 32 231 128 652 197 865 53 167 156 331
251 400 121 88 211 116 358 112 83 -3 99 -6 167 -40z m-1341 9 c190 -38 303
-109 402 -254 45 -68 66 -135 73 -238 13 -189 -47 -331 -175 -412 -148 -94
-333 -77 -461 43 -47 44 -111 149 -111 182 0 7 -12 14 -30 15 -16 0 -35 1 -41
2 -7 1 -17 -17 -24 -39 -16 -55 -41 -100 -85 -156 -34 -43 -39 -58 -54 -156
-36 -225 -52 -491 -72 -1138 -10 -324 22 -762 68 -934 l23 -85 57 -17 c77 -23
136 -58 187 -114 83 -90 116 -203 100 -347 -11 -96 -33 -156 -86 -234 -119
-174 -283 -242 -486 -200 -214 44 -308 144 -396 420 -74 231 -85 370 -78 966
5 427 1 594 -34 1445 -6 160 -9 332 -5 383 3 50 2 92 -3 92 -43 0 -433 -143
-636 -233 -177 -79 -326 -103 -465 -77 -209 40 -351 220 -338 429 7 108 38
179 108 255 71 76 143 113 254 132 45 8 108 21 141 29 33 8 143 28 245 45 102
17 244 42 315 55 188 35 387 62 575 80 91 8 215 22 275 31 316 44 621 56 757
30z m-6659 -324 c123 -61 204 -167 229 -300 17 -92 -4 -356 -63 -787 -66 -481
-108 -1121 -88 -1340 30 -330 92 -488 258 -658 86 -89 138 -130 212 -168 54
-27 112 -81 147 -137 149 -233 12 -540 -262 -591 -61 -11 -208 -1 -291 20 -77
20 -153 70 -228 148 -162 171 -244 308 -318 533 l-43 128 -39 -73 c-125 -231
-338 -439 -533 -521 -118 -49 -203 -68 -335 -73 -96 -4 -142 -2 -198 11 -187
43 -372 188 -506 400 -105 165 -160 361 -190 671 -8 88 -17 171 -20 185 -30
162 -67 1707 -44 1835 31 174 165 306 337 334 205 33 465 -129 537 -334 25
-72 23 -194 -4 -266 -20 -51 -33 -73 -100 -159 -22 -28 -54 -196 -98 -510 -25
-183 -27 -218 -28 -565 0 -405 2 -424 64 -594 59 -163 144 -240 255 -232 15 1
60 16 100 35 209 97 399 447 531 980 82 329 98 439 136 918 20 261 20 273 4
484 -21 264 -18 339 19 419 49 108 117 172 233 221 51 22 70 24 159 22 90 -3
107 -7 167 -36z m-3744 -28 c210 -31 357 -72 481 -134 204 -102 359 -279 427
-485 34 -105 43 -287 19 -392 -41 -182 -156 -373 -327 -544 -77 -77 -225 -199
-312 -259 l-49 -32 63 -35 c297 -165 466 -364 577 -683 50 -146 65 -246 59
-400 -6 -148 -31 -248 -89 -365 -99 -197 -268 -363 -481 -475 -268 -141 -461
-180 -890 -180 -114 0 -251 -6 -305 -12 -53 -7 -137 -13 -187 -12 -80 0 -97 4
-157 32 -47 23 -84 51 -125 95 -38 42 -78 73 -118 92 -130 62 -222 196 -232
337 -4 59 2 108 31 252 68 336 70 350 69 711 -2 367 -3 382 -104 905 l-42 215
-81 86 c-96 100 -127 154 -157 269 -20 77 -21 94 -11 181 7 71 18 113 41 163
21 43 34 89 37 129 13 160 93 281 231 349 90 44 209 51 311 18 l68 -22 99 30
c260 79 627 161 780 175 104 10 278 6 374 -9z m6962 -14 c211 -66 318 -287
244 -506 -47 -141 -104 -205 -245 -273 -92 -45 -97 -46 -190 -46 -91 0 -101 2
-170 37 l-74 36 -37 -41 c-60 -67 -73 -140 -176 -1017 -26 -217 -28 -264 -28
-605 0 -317 3 -383 18 -460 32 -161 45 -192 92 -219 107 -63 176 -181 183
-311 4 -99 -9 -145 -74 -256 -64 -108 -132 -177 -214 -217 -184 -89 -365 -54
-524 101 -169 166 -205 347 -153 787 15 118 33 330 42 470 8 140 20 307 25
370 5 63 10 395 10 738 l0 622 -22 -5 c-257 -61 -250 -59 -306 -114 -32 -31
-82 -66 -120 -84 -61 -29 -75 -32 -168 -32 -100 0 -102 0 -195 47 -143 71
-213 151 -251 287 -63 228 53 437 277 500 59 16 433 66 720 96 138 14 277 30
310 35 98 14 268 29 470 40 105 6 228 17 275 24 126 20 208 19 281 -4z m15653
-9818 c89 -42 149 -100 192 -186 42 -86 53 -181 32 -262 l-14 -51 113 -7 c186
-10 558 -67 734 -111 263 -67 577 -211 779 -358 268 -196 430 -448 502 -780
18 -86 22 -134 22 -307 0 -185 -2 -217 -26 -330 -76 -352 -240 -715 -503
-1115 -184 -281 -305 -411 -664 -719 -324 -277 -389 -328 -512 -401 -59 -35
-130 -80 -157 -99 -74 -53 -135 -77 -215 -83 -135 -10 -250 35 -362 142 -66
64 -83 98 -157 314 -87 252 -117 409 -158 816 -44 440 -53 591 -90 1515 -12
283 -23 547 -26 586 l-5 71 -52 24 c-78 36 -191 148 -230 228 -30 62 -32 73
-32 172 0 101 1 108 38 181 42 86 100 145 184 186 l52 26 -2 140 c-2 140 -2
142 30 208 40 85 97 147 172 186 78 42 122 52 213 48 61 -3 92 -11 142 -34z
m-1882 -111 c81 -31 159 -106 200 -189 30 -61 33 -74 33 -162 0 -88 -3 -101
-33 -162 -41 -84 -120 -158 -200 -189 -67 -26 -160 -30 -277 -12 -128 19 -460
36 -585 28 -345 -19 -626 -47 -642 -63 -14 -14 -51 -544 -64 -916 l-7 -199 79
7 c230 20 587 117 839 226 66 29 151 66 188 82 90 39 149 45 222 23 196 -56
288 -260 201 -440 -42 -85 -89 -118 -330 -236 -533 -259 -862 -380 -1177 -433
l-36 -6 4 -343 c5 -567 7 -603 32 -676 28 -81 80 -160 120 -184 75 -44 368
-70 547 -48 176 22 285 58 406 137 79 51 127 112 164 209 67 174 194 263 363
253 212 -12 365 -212 322 -420 -16 -75 -101 -243 -175 -346 -73 -102 -228
-252 -322 -314 -268 -175 -604 -268 -973 -268 -395 0 -651 86 -853 284 -228
226 -312 544 -264 1011 15 141 30 364 42 616 l6 136 -44 26 c-59 34 -114 97
-147 166 -23 49 -26 68 -26 161 0 101 2 108 37 183 25 52 58 100 98 141 l60
63 0 86 c0 104 -27 655 -35 715 l-6 42 -43 0 c-176 0 -312 83 -388 237 -43 86
-43 87 -43 197 0 102 2 116 29 171 63 128 176 206 413 285 327 108 528 129
1288 131 231 1 461 5 510 9 50 4 162 7 250 6 140 -2 167 -5 217 -25z m-4097
-7 c85 -19 213 -77 292 -134 32 -23 112 -94 177 -158 158 -154 181 -200 181
-352 0 -93 -3 -111 -27 -163 -35 -75 -114 -157 -183 -191 -205 -100 -432 -20
-545 193 -19 35 -40 66 -48 68 -24 10 -134 -27 -196 -65 -180 -109 -410 -352
-498 -525 -40 -81 -70 -202 -62 -251 7 -45 54 -95 219 -237 55 -47 192 -166
305 -265 113 -99 257 -223 320 -275 266 -221 427 -397 598 -649 182 -270 231
-543 146 -805 -112 -340 -369 -586 -745 -709 -282 -92 -627 -92 -895 -1 -275
95 -476 280 -563 520 -41 114 -55 208 -48 330 12 206 90 454 178 566 69 88
211 141 321 121 121 -22 212 -92 264 -200 24 -48 28 -70 28 -142 1 -74 -3 -94
-30 -156 -44 -98 -56 -163 -43 -222 13 -59 31 -79 95 -108 122 -54 334 -59
472 -11 149 52 262 140 313 243 28 56 31 71 26 122 -10 113 -86 231 -263 407
-173 171 -358 307 -834 610 -243 155 -364 262 -463 412 -93 140 -128 252 -129
413 0 193 49 344 205 628 44 81 103 183 132 227 186 287 501 582 747 698 172
82 360 102 553 61z m-2999 -754 c141 -69 210 -179 298 -471 62 -207 110 -411
192 -819 31 -151 82 -387 114 -525 33 -137 82 -352 110 -477 83 -373 178 -624
284 -753 75 -91 101 -137 120 -210 77 -294 -179 -578 -475 -527 -119 20 -214
78 -280 171 -49 68 -75 153 -89 291 -6 58 -18 134 -25 170 -7 36 -32 180 -54
320 -31 193 -66 358 -146 680 -137 551 -221 814 -396 1244 -66 161 -72 171
-132 231 -103 100 -150 231 -129 355 30 168 135 283 311 342 88 29 212 20 297
-22z m-5273 -10 c342 -72 709 -254 908 -450 42 -41 87 -89 100 -107 l24 -32 0
97 c1 87 4 105 34 175 87 203 297 301 495 230 123 -43 202 -133 255 -288 19
-55 35 -101 35 -102 1 -1 26 9 55 23 170 81 350 109 538 83 230 -32 622 -223
878 -427 367 -293 586 -535 705 -777 73 -150 100 -254 100 -388 0 -80 -5 -113
-26 -175 -74 -214 -258 -414 -489 -530 -229 -114 -446 -151 -892 -152 -117 0
-213 -4 -213 -8 0 -14 63 -77 121 -120 70 -53 290 -165 433 -220 275 -108 787
-194 1027 -173 84 7 111 21 209 106 88 76 148 100 250 100 73 0 93 -4 142 -28
72 -35 140 -110 168 -185 18 -46 21 -72 18 -137 -6 -110 -33 -159 -148 -269
-191 -181 -375 -282 -550 -300 -255 -27 -1291 229 -1715 424 l-82 38 -6 -57
c-10 -106 -65 -234 -132 -309 -61 -68 -122 -105 -235 -143 -87 -29 -103 -31
-185 -26 -151 8 -282 69 -404 186 -139 134 -215 387 -241 801 -17 283 -24 957
-11 1130 19 254 89 666 135 797 13 36 11 45 -25 145 -21 59 -52 141 -69 182
-39 92 -70 125 -35 37 46 -119 60 -204 59 -366 -2 -187 -27 -295 -110 -465
-180 -371 -528 -730 -899 -926 -145 -77 -402 -173 -524 -195 -39 -7 -71 -17
-71 -22 0 -4 21 -83 46 -175 95 -347 155 -501 258 -659 122 -189 157 -298 137
-423 -30 -186 -175 -330 -365 -363 -173 -29 -366 72 -445 235 -35 72 -56 168
-71 318 -19 195 -31 284 -96 675 -35 215 -85 478 -110 585 -123 523 -260 1049
-360 1376 l-24 81 -46 7 c-115 15 -232 105 -289 220 -113 227 -1 474 296 651
291 174 546 260 915 309 149 21 396 14 527 -14z m-3126 -410 c244 -62 429
-190 642 -445 265 -318 403 -666 418 -1050 12 -316 -73 -575 -265 -816 -187
-233 -467 -412 -864 -553 l-118 -42 133 -66 c145 -72 257 -114 494 -187 225
-69 223 -69 277 -27 65 49 136 71 231 71 69 0 89 -5 147 -32 156 -73 247 -241
219 -400 -25 -135 -149 -307 -266 -365 -178 -90 -283 -80 -691 65 -405 145
-738 280 -924 376 -172 89 -337 170 -387 192 l-42 18 4 -27 c32 -179 73 -366
100 -456 90 -301 106 -438 66 -559 -101 -303 -467 -394 -706 -176 -59 55 -107
130 -124 196 -14 52 -41 263 -41 322 l0 44 -31 -46 c-58 -88 -148 -142 -317
-194 -73 -22 -107 -26 -212 -27 l-126 -1 -76 37 c-138 69 -268 236 -354 457
-21 55 -41 101 -44 101 -3 0 -31 -51 -63 -113 -151 -295 -344 -519 -543 -630
-316 -177 -629 -143 -889 95 -157 144 -248 336 -340 713 -20 83 -60 249 -90
370 -60 241 -101 455 -139 734 -14 100 -59 376 -100 614 -80 462 -122 797
-112 887 9 79 66 189 124 240 60 53 101 74 198 101 86 24 153 22 298 -5 149
-28 252 -103 310 -226 29 -60 31 -73 31 -170 0 -94 -3 -111 -28 -165 -16 -35
-52 -84 -84 -117 l-56 -57 6 -353 c4 -194 12 -416 17 -493 19 -263 73 -646
127 -885 42 -190 169 -479 246 -562 27 -29 97 -53 131 -44 39 10 196 148 262
230 238 295 346 631 429 1336 50 426 88 1076 91 1545 1 192 10 237 69 318 158
214 493 190 613 -44 20 -40 37 -90 43 -134 14 -99 14 -534 0 -695 -36 -424
-53 -838 -47 -1125 14 -597 30 -792 82 -955 29 -93 81 -181 116 -198 15 -7 69
-14 120 -15 76 -2 103 -7 149 -29 71 -32 133 -88 168 -150 l28 -48 7 132 c16
295 24 700 15 731 -5 18 -14 70 -20 117 -5 47 -84 380 -175 740 -90 360 -169
693 -176 740 -9 72 -8 100 5 173 30 163 102 264 234 329 63 31 74 33 168 33
120 -1 188 -23 261 -88 26 -23 49 -37 51 -31 10 31 116 203 168 275 243 333
589 510 962 493 62 -3 148 -14 190 -24z m-5912 -175 c240 -62 465 -264 590
-530 68 -144 79 -197 79 -370 -1 -262 -63 -430 -208 -562 -80 -73 -146 -97
-266 -97 -123 0 -187 24 -270 101 -154 142 -178 378 -55 539 14 18 25 45 25
59 0 35 -25 87 -55 115 -22 21 -24 21 -56 4 -122 -62 -252 -181 -337 -306
-144 -213 -169 -428 -69 -598 19 -33 95 -116 192 -211 189 -186 310 -293 539
-477 283 -227 411 -351 625 -602 166 -194 269 -381 323 -587 29 -110 32 -130
32 -298 1 -162 -1 -187 -22 -254 -67 -212 -243 -383 -501 -487 -278 -113 -753
-112 -1236 2 -123 29 -484 138 -615 186 -295 108 -424 210 -486 388 -60 172
-11 354 139 515 82 89 143 127 229 145 156 31 331 -66 388 -218 20 -53 26
-130 17 -221 -2 -21 7 -28 68 -53 203 -85 610 -149 840 -133 138 9 226 27 332
68 117 45 131 55 145 97 17 49 14 175 -7 246 -21 75 -91 207 -148 281 -108
140 -378 378 -624 548 -143 100 -405 294 -508 379 -198 161 -351 392 -412 624
-23 84 -26 118 -26 252 -1 230 35 368 166 634 108 221 190 343 328 487 159
166 409 314 579 342 62 11 210 6 265 -8z m14975 -3719 c-28 -15 -90 -30 -90
-22 0 5 87 34 105 35 6 0 -1 -6 -15 -13z"/>
        <path d="M15085 34983 c-5 -54 -5 -289 -1 -523 9 -553 32 -786 101 -1040 19
-69 41 -159 50 -200 9 -41 27 -104 40 -140 14 -36 29 -83 34 -105 7 -27 27
-56 59 -88 l49 -49 104 25 c150 37 342 101 434 147 223 111 377 297 435 528
49 195 49 475 1 614 -55 159 -240 359 -491 530 -232 158 -425 277 -518 320
-92 42 -210 78 -258 78 l-32 0 -7 -97z"/>
        <path d="M28184 29659 c-50 -99 -134 -330 -169 -462 -88 -336 -125 -690 -106
-998 33 -508 107 -667 376 -801 167 -84 310 -120 475 -121 179 0 267 39 411
182 73 74 93 101 137 191 95 194 141 421 149 735 6 230 -6 353 -52 528 -73
279 -239 508 -447 613 -39 20 -62 24 -133 24 -47 0 -118 -7 -157 -16 -183 -42
-331 6 -429 139 l-28 38 -27 -52z"/>
        <path d="M16309 29570 c-125 -14 -256 -49 -404 -107 -178 -70 -355 -161 -355
-182 0 -9 10 -41 21 -71 25 -65 29 -190 8 -258 -12 -37 -12 -77 0 -255 7 -117
15 -214 17 -216 7 -8 153 29 279 70 154 51 434 190 550 273 263 190 413 363
431 497 23 167 -235 285 -547 249z"/>
        <path d="M16187 27734 c-92 -14 -411 -77 -484 -96 -42 -10 -43 -11 -38 -47 3
-20 12 -103 20 -186 24 -230 52 -382 83 -442 l26 -53 206 0 c413 0 618 48 744
175 95 94 116 181 81 320 -35 136 -104 224 -224 284 -118 60 -236 73 -414 45z"/>
        <path d="M39640 19090 c-52 -5 -129 -16 -170 -25 -41 -9 -90 -19 -108 -22 -18
-3 -35 -9 -37 -14 -13 -20 -4 -1076 10 -1299 29 -445 73 -820 123 -1035 l27
-120 40 -8 c94 -19 143 -39 194 -78 29 -22 59 -38 67 -35 21 8 282 184 349
235 131 101 302 294 423 479 153 233 304 589 363 852 73 330 -9 649 -210 817
-130 108 -340 192 -592 239 -101 19 -349 26 -479 14z"/>
        <path d="M24665 18840 c-131 -15 -351 -81 -359 -108 -2 -9 -7 -35 -11 -57 -4
-21 -13 -52 -21 -67 -13 -24 -12 -47 1 -175 24 -235 83 -619 133 -863 l18 -85
49 -24 c27 -12 66 -36 86 -52 43 -34 68 -36 177 -13 247 51 538 284 701 563
18 29 51 97 74 150 38 89 41 103 42 186 0 83 -3 96 -34 158 -119 243 -519 424
-856 387z"/>
        <path d="M27200 18519 c-66 -13 -145 -55 -200 -107 l-49 -47 40 -190 c49 -235
91 -479 118 -694 12 -91 23 -166 25 -168 2 -2 32 4 67 12 38 9 153 19 284 25
531 23 644 48 797 179 79 67 80 124 7 259 -139 259 -410 499 -734 653 -154 73
-263 97 -355 78z"/>
        <path d="M21520 18524 c-46 -9 -145 -47 -185 -72 -128 -80 -234 -210 -330
-406 -149 -303 -215 -626 -215 -1051 l0 -211 63 -45 62 -44 170 1 c155 1 180
4 285 31 151 40 288 92 435 166 243 121 356 224 448 409 52 102 67 173 67 304
0 213 -79 422 -240 637 -95 125 -175 196 -278 245 -65 31 -84 35 -165 38 -51
1 -103 0 -117 -2z"/>
    </g>
</svg>
